<svg version="1.2" xmlns="http://www.w3.org/2000/svg" viewBox="0 0 20 6" width="20" height="6">
	<title>dots</title>
	<style>
		.s0 { fill: #000000 } 
	</style>
	<path id="dots" fill-rule="evenodd" class="s0" d="m3 5.8c-1.5 0-2.8-1.3-2.8-2.8 0-1.5 1.3-2.8 2.8-2.8 1.5 0 2.8 1.3 2.8 2.8 0 1.5-1.3 2.8-2.8 2.8zm0-4c-0.7 0-1.3 0.5-1.3 1.2 0.1 0.7 0.6 1.3 1.3 1.3 0.7 0 1.3-0.6 1.3-1.3-0.1-0.7-0.6-1.2-1.3-1.2zm14 4c-1.5 0-2.8-1.3-2.8-2.8 0-1.5 1.3-2.8 2.8-2.8 1.5 0 2.8 1.3 2.8 2.8 0 1.5-1.3 2.8-2.8 2.8zm0-4c-0.7 0-1.3 0.5-1.3 1.2 0.1 0.7 0.6 1.3 1.3 1.3 0.7 0 1.3-0.6 1.3-1.3-0.1-0.7-0.6-1.2-1.3-1.2zm-7 4c-1.5 0-2.8-1.3-2.8-2.8 0-1.5 1.3-2.8 2.8-2.8 1.5 0 2.8 1.3 2.8 2.8 0 1.5-1.3 2.8-2.8 2.8zm0-4c-0.7 0-1.3 0.5-1.3 1.2 0.1 0.7 0.6 1.3 1.3 1.3 0.7 0 1.3-0.6 1.3-1.3-0.1-0.7-0.6-1.2-1.3-1.2z"/>
</svg>