<svg version="1.2" xmlns="http://www.w3.org/2000/svg" viewBox="0 0 21 20" width="21" height="20">
	<title>edit</title>
	<style>
		.s0 { fill: #000000 } 
	</style>
	<path id="edit" fill-rule="evenodd" class="s0" d="m19.6 19.9h-7.5c-0.5 0-0.8-0.4-0.8-0.8 0-0.5 0.3-0.8 0.8-0.8h7.5c0.4 0 0.8 0.3 0.8 0.8 0 0.4-0.4 0.8-0.8 0.8zm-17.8 0c-0.4 0-0.7-0.3-0.8-0.6l-0.8-3.7c-0.2-0.7-0.1-1.5 0.4-2.1l9.8-12.3q0 0 0.1 0c1-1.3 3-1.4 4.3-0.4 0 0 1.8 1.4 1.8 1.4 0.6 0.4 1.1 1.1 1.3 1.8 0.2 0.8 0 1.7-0.4 2.3 0 0.1 0 0.1-1.9 2.5 0.2-0.3 0.1-0.8-0.2-1l-0.6-0.5c0.8-1.1 1.4-1.8 1.4-1.8 0.2-0.3 0.3-0.7 0.2-1.1-0.1-0.4-0.4-0.7-0.7-0.9-0.1-0.1-1.8-1.4-1.9-1.5-0.6-0.5-1.6-0.4-2.1 0.2l-1.4 1.7-0.6-0.5c-0.3-0.3-0.8-0.2-1.1 0.2-0.3 0.3-0.2 0.8 0.1 1l0.6 0.5-7.5 9.4c-0.1 0.2-0.2 0.5-0.1 0.8l0.7 3 3.1-0.1c0.3 0 0.6-0.1 0.8-0.3 2.1-2.6 5.3-6.6 7.5-9.4l0.6 0.5q0.2 0.2 0.5 0.2 0.3 0 0.5-0.2c-1.4 1.7-3.8 4.8-7.9 9.9-0.4 0.5-1.2 0.9-1.9 0.9l-3.8 0.1zm13.7-11q0.1-0.1 0.1-0.1-0.1 0.1-0.2 0.2 0.1-0.1 0.1-0.1zm-5.2-5l-0.9 1.2 4.4 3.4q0.5-0.6 1-1.2z"/>
</svg>