<svg version="1.2" xmlns="http://www.w3.org/2000/svg" viewBox="0 0 22 22" width="22" height="22">
	<title>edit</title>
	<style>
		.s0 { fill: #000000 } 
	</style>
	<path id="edit" fill-rule="evenodd" class="s0" d="m14 21.8l-6-0.1c-5.4 0-7.8-2.3-7.8-7.7v-6c0-5.4 2.4-7.8 7.8-7.8h2c0.4 0 0.8 0.4 0.8 0.8-0.1 0.4-0.4 0.7-0.8 0.7h-2c-4.6 0-6.3 1.7-6.3 6.3v6c0 4.6 1.7 6.2 6.3 6.2h6c4.6 0 6.3-1.6 6.3-6.2v-2c0-0.4 0.3-0.8 0.7-0.8 0.4 0 0.8 0.4 0.8 0.8v2c0 5.4-2.4 7.7-7.8 7.7zm-6.5-5c-0.6 0-1.2-0.2-1.6-0.6-0.5-0.5-0.7-1.2-0.6-2l0.5-3c0-0.6 0.4-1.3 0.8-1.7l6.7-6.7q0.1-0.1 0.2-0.2l1-1q3-3 6 0 1.6 1.6 1.5 3.3-0.1 1.3-1.5 2.7l-1.1 1.1q0 0-0.1 0.1l-6.7 6.7c-0.4 0.4-1.1 0.7-1.7 0.8l-3 0.5q-0.2 0-0.4 0zm8.1-14.2l-0.8 0.9c0.6 1.7 2 3.2 3.8 3.8l0.8-0.8q1-0.9 1.1-1.8 0.1-0.9-1.1-2.1c-1.6-1.6-2.7-1.1-3.8 0zm-7.9 7.9c-0.2 0.2-0.4 0.7-0.5 0.9l-0.4 3q0 0.5 0.2 0.7 0.2 0.2 0.7 0.2l3-0.5c0.2 0 0.7-0.2 0.9-0.4l5.9-5.9c-1.7-0.8-3.1-2.2-3.9-3.9z"/>
</svg>