<svg version="1.2" xmlns="http://www.w3.org/2000/svg" viewBox="0 0 554 323" width="554" height="323">
	<title>IMG_7511-svg</title>
	<style>
		.s0 { fill: #fb749c } 
		.s1 { fill: #ebc795 } 
		.s2 { fill: #fdc765 } 
		.s3 { fill: #ffebc6 } 
		.s4 { fill: #000000 } 
		.s5 { opacity: 1;fill: #40187c } 
		.s6 { fill: #040404 } 
	</style>
	<g id="Layer 2">
		<path id="Path 0" class="s0" d="m192.3 215.1c1.2 0.4 3 1.7 4 3 1.2 1.6 1.8 4.5 2.2 15.4l-7.3 0.5c-4.1 0.3-7.8 0.3-8.3 0-0.5-0.3-1-3.5-1.2-7.2-0.2-5.7 0.1-7 2.1-9.2 1.3-1.4 3.2-2.6 4.3-2.8 1.1-0.2 3 0 4.2 0.3z"/>
		<path id="Path 1" class="s1" d="m424 122.1c1.9 0.2 4.3 1 5.3 1.8 1.1 1 1.7 2.9 1.7 5.1 0 1.9-0.6 4.3-1.3 5.3-0.7 0.9-3 2-5.2 2.3-3.3 0.4-4.4 0.1-6.3-1.8-1.5-1.5-2.3-3.6-2.4-6 0-2.8 0.5-4.1 2.3-5.3 1.3-0.9 4-1.5 5.9-1.4zm-155.8 37c2.6-0.1 2.8 0.2 2.8 3.9 0 3.4-0.5 4.3-3.2 6-1.8 1.1-4.9 2.2-6.8 2.5-2.9 0.4-3.8 1.2-5.2 4.5-1.7 3.8-1.7 4.2 0.1 9.3 1 2.8 2.9 7 4.2 9.2 1.3 2.2 2.9 4.6 3.6 5.3 0.7 0.6 2 3.8 2.9 7 1.2 3.9 1.5 7.5 1 11.5-0.3 3.1-1.2 6.9-2 8.5-0.8 1.5-2.4 3.6-3.5 4.7-1.9 1.7-2.2 3.1-2.2 10 0 4.5-0.5 8.9-1.2 10.1-0.7 1.1-3 3.6-5.2 5.6-2.2 1.9-5.6 4.3-7.5 5.3-2 1-5.9 1.8-9.1 1.9-3.4 0.1-6.3 0.7-7.3 1.6-1 0.8-2.3 2.6-3 4-0.9 1.9-2.2 2.7-5.6 3.2-2.5 0.4-23.4 1.9-46.5 3.3-23.1 1.3-42.2 2.2-42.5 1.9-0.3-0.3-0.5-2.2-0.5-4.2 0-3-0.4-3.7-2.4-4.2-1.6-0.3-2.7-1.4-3.1-3-0.4-1.4-0.2-3.9 0.3-5.5 0.5-1.6 1.7-3.8 2.6-4.8 0.9-1 2.3-1.7 3.1-1.7 0.8 0 5.1-1.8 9.5-4.1 4.4-2.4 11.6-6.7 16-9.8 5.2-3.6 8.9-5.4 10.5-5.3 2 0.2 2.3 0 1.2-1-0.7-0.7-1.2-1.6-1.2-2 0-0.5 0.3-0.6 0.8-0.4 0.4 0.3 3.1-1.3 6-3.5 2.8-2.1 5.4-3.8 5.6-3.6 0.3 0.1 0.6 2 0.7 4.2 0.1 2.2 0 4.4-0.2 5-0.2 0.6 0.1 1.1 0.6 1.1 0.6 0.1 1.4 0 2-0.2 0.6-0.1 3.8-0.4 7.3-0.6 5-0.2 6.7-0.7 7.8-2.3 1-1.4 1.3-3.2 0.8-6-0.3-2.2-1.3-5.5-2.3-7.4-1.6-3.2-1.5-3.4 0.9-5.2 1.4-1 4.2-2.7 6.2-3.6 2.1-1 4-2.5 4.3-3.3 0.2-0.8 2-2.1 4-2.7 2.3-0.9 3.3-1.7 2.8-2.5-0.5-0.8-0.4-1 0.2-0.6 0.6 0.4 3.9-1.6 7.5-4.4 3.6-2.8 9.4-8.1 12.8-11.7 3.5-3.6 8.8-9.5 11.7-13.1 2.9-3.6 6.5-7.4 8.1-8.4 1.6-1.1 4.5-2.5 6.4-3.2 1.9-0.7 4.7-1.3 6.3-1.3zm145.2 5.9c2.9-0.1 5.5 0.5 6.1 1.2 0.7 0.7 1.4 2.2 1.6 3.3 0.2 1.1 1.6 2.6 3.1 3.3 1.5 0.6 3.6 2.6 4.7 4.2 1.1 1.7 2 3.7 2 4.5 0 0.8-1.2 2.3-2.7 3.2-1.6 0.9-3.5 2.6-4.4 3.7-0.9 1.2-3.1 2.7-5 3.5-1.9 0.8-5.3 1.2-7.6 1-2.4-0.2-4.5 0-4.7 0.6-0.2 0.6-0.5 0.3-0.5-0.5 0-0.8-1.2-2.6-2.6-4-1.4-1.4-3-3.6-3.6-5-0.6-1.4-0.8-4.1-0.5-6 0.3-1.9 0.6-3.9 0.7-4.5 0.1-0.6 0.5-1.8 1-2.7 0.5-1 2.4-2.7 4.2-3.8 2-1.3 5-2 8.2-2zm-25 16l-2 1.3c-1.1 0.8-2.8 1.7-3.7 2-1 0.4-1.9 0.4-2 0.1-0.2-0.4 0.6-1.3 1.7-2 1.1-0.7 2.9-1.4 6-1.4zm-10 6c0.3 0 1.5 0.8 2.6 1.8 1.2 0.9 2.7 2.3 3.3 3 0.6 0.7 1.9 2.2 2.9 3.3 0.9 1 1.3 2 0.9 2.2-0.5 0.1-1.5 1.5-2.3 3.2-0.8 1.6-2.5 3.5-3.9 4.1-1.4 0.6-4.1 1.8-6 2.5-1.9 0.7-7 1.3-11.2 1.4-4.3 0-7.8 0.3-7.8 0.8 0 0.4-0.7 1.4-1.6 2.2-0.9 0.9-3.4 1.5-6 1.5-2.8 0-5.2 0.6-6.2 1.6-1.3 1.2-3 1.5-6.7 1.2-2.7-0.2-7.9-1.8-11.5-3.4-3.6-1.7-10.1-5.7-14.5-8.8-4.4-3.1-8.8-5.9-9.7-6.2-1.2-0.2-1.8-1.4-1.8-5.9l5.2 0.8c4.7 0.7 5.5 0.5 9.9-3.8l24.2 1.5c13.3 0.8 25.3 1.4 26.7 1.4 1.4-0.1 4.9-0.7 7.8-1.5 2.8-0.8 5.2-1.7 5.2-2.1 0-0.5 0.2-0.8 0.5-0.8zm69 11.1c4.8-0.1 6.3 0.3 7.8 1.9 1.6 1.9 1.6 2.1-0.5 4.1-1.8 1.6-2.2 3-2.1 6.2 0.2 2.3 0.5 8.1 0.8 13 0.4 6.3 0.8 8.5 1.7 8 0.9-0.6 1 1 0.4 6.7-0.4 4.1-0.4 8.5 0.1 9.7 0.4 1.2 1.3 2.3 1.8 2.4 0.6 0.1 1.6 2 2.2 4.3 0.7 2.2 1.3 6.5 1.3 9.4 0 2.8-0.1 5.2-0.2 5.2-0.2 0-5.7 1.1-12.3 2.4-6.6 1.4-21.6 5.6-33.2 9.5-15.5 5.2-23.3 8.3-28.5 11.6-4 2.5-11.1 5.7-15.8 7.2-6.5 2.1-10.4 2.8-16.5 2.8-4.4-0.1-11.4-0.5-23.3-2l-0.3-10c-0.1-5.5-0.2-17.9-0.1-27.5 0.1-9.6 0.7-19.7 1.2-22.5 0.6-2.7 2.3-6.8 3.8-9 1.8-2.4 5-5.1 8.3-6.8 3-1.5 6.2-2.7 7.2-2.7 0.9 0 3.8-0.8 6.5-1.8 2.6-1 7.9-2.9 11.7-4.2 3.9-1.3 9.1-2.4 11.7-2.4 4.4-0.1 4.8-0.3 4.8-2.6 0-1.4 0.4-4 1-5.7 0.5-1.8 1.5-3.3 2-3.3 0.6 0 1.1 0.8 1.1 1.8 0.1 0.9 0.3 4.2 0.4 7.2 0.2 3 0.6 7.8 0.9 10.5 0.5 4.2 0.4 4.7-0.6 3.3-0.7-1-1.9-1.7-2.5-1.8-0.7 0 0 1.7 1.6 3.8 1.9 2.5 3 5.4 3.5 9 0.3 2.8 0.8 5.6 1.1 6.2 0.3 0.6 1.7 1 3.3 1 1.5 0 3.7-0.2 5-0.5 2-0.5 2.2-1 2.1-6.2-0.1-5.5-0.2-5.6-0.8-1.8-0.4 2.2-1 4.6-1.4 5.3-0.4 0.6-2.2 1.2-3.9 1.2-3.3 0-3.3 0-1-1.4 1.5-1 2.7-3.1 3.3-5.8 0.6-2.7 0.6-7.6 0.1-13.3-0.5-4.9-0.7-11.1-0.3-13.7 0.4-2.9 1-4.5 1.6-4 0.6 0.4 1 1.3 1 2 0 0.6 0.1 1.8 0.3 2.5 0.2 0.8 1.5 0.6 4.7-1 2.5-1.3 5.6-2.3 7-2.3 1.4 0 4.2-0.7 6.3-1.5 2-0.8 7.3-2.1 11.7-2.9 4.4-0.8 10.7-1.5 14-1.5zm-125 51.2c0.5 0.2 1.1 2.1 1.3 4.3 0.2 2.3-0.5 6.1-1.7 9.2-1.2 2.8-1.8 5.2-1.3 5.2 0.4 0 1 3.4 1.5 7.5 0.6 6.2 0.4 8.1-1 11-1 1.9-2.4 3.7-3 4-0.7 0.3-2.2 0.1-3.3-0.5-1.1-0.6-2-1.6-2-2.2 0-0.7-1.9-2.7-4.2-4.4-2.4-1.7-5.2-4.3-6.3-5.8-1.7-2.3-2.6-2.6-6.7-2.4-2.6 0.2-5.2-0.1-5.8-0.7-0.9-0.7-0.9-1.6-0.1-3.2 1-2.1 1.7-2.3 10.6-2.3 5.2 0 10.4-0.4 11.5-1 1.1-0.6 3.1-3.4 4.5-6.2 1.4-2.9 2.4-6.4 2.3-7.9-0.1-1.4 0.4-3 1.2-3.7 0.8-0.7 1.9-1.1 2.5-0.9z"/>
		<path id="Path 2" class="s2" d="m393.2 176c1 0 2.7 0.4 3.8 1 1.1 0.6 2 1.9 2 3 0 1.1 0.5 3 1.1 4.3 0.6 1.2 2.2 3.3 3.6 4.7 1.3 1.4 2.3 3.4 2.1 4.5-0.2 1.1-1.3 2.4-2.5 3-1.9 0.9-2.2 2-2.5 8-0.2 3.8 0 11.3 0.4 16.5 0.6 6.6 0.5 10.6-0.3 13-0.6 1.9-1.7 4.1-2.3 4.8-0.6 0.7-1.9 1.3-2.8 1.2-1 0-2-1-2.3-2.3-0.2-1.2-0.9-6.3-1.5-11.2-0.6-4.9-1.3-12.2-1.6-16-0.3-3.8-0.6-8.3-0.8-10-0.1-1.7-1.2-4-2.4-5.3-1.2-1.2-2.2-2.5-2.2-3 0-0.4-1.1-1.4-2.5-2.2-1.4-0.8-2.8-2.1-3-2.8-0.3-0.7 1.3-2 4-3.2 2.5-1.1 4.5-2.4 4.5-3 0-0.6 0.8-1.9 1.7-3 0.9-1.1 2.5-2 3.5-2z"/>
		<path id="Path 3" fill-rule="evenodd" class="s3" d="m401.5 62.8c1.6 0.2 3.4 0.8 4 1.2 0.6 0.5 3.9 1.8 7.5 2.9 3.6 1.2 8.2 2.1 10.3 2.1 3 0 4.3 0.6 6.7 3.5 1.9 2.2 3 4.6 3 6.5 0 1.9 0.9 3.7 2.2 5 1.3 1.1 3.8 2 5.8 2 2.2 0 4.3 0.9 5.8 2.3 1.2 1.2 2.2 3.2 2.2 4.5 0 1.2 0.9 3 2 4 1.1 0.9 2.3 3.3 2.7 5.2 0.3 1.9 0.3 4.6 0 6-0.3 1.4-1.6 3-2.9 3.7-1.3 0.7-4.3 2.1-6.8 3.1-2.5 1.1-7.2 3-10.5 4.3-3.3 1.3-6.1 2.6-6.3 2.9-0.1 0.3-1.7 0.4-3.5 0.2-1.8-0.2-4.2 0.4-5.5 1.2-1.6 1.2-2.2 2.6-2.2 5.4 0 2.5 0.7 4.4 2.2 6 1.6 1.6 3.2 2.3 5 2 2.2-0.2 2.8 0.1 2.8 1.7 0 1.1 1.4 3.6 3.1 5.5 1.6 1.9 2.9 3.7 2.9 4 0 0.3-0.8 1.3-1.8 2.3-0.9 1-2.1 1.7-2.7 1.7-0.6 0-1.9 0.8-3 1.7-1.1 1-5.1 3.9-9 6.5-3.9 2.5-12.6 8-19.5 12.2-6.9 4.2-12.5 8.2-12.5 8.9 0 0.7-0.8 1.1-1.8 1-1-0.2-1.5 0.2-1.2 1 0.2 0.6-0.3 2.1-1.3 3.2-0.9 1.1-4 2.6-6.7 3.4-2.8 0.8-6.1 1.5-7.5 1.5-1.4 0-13.4-0.6-50.9-2.9l-2.3 2.3c-2.1 2-2.9 2.2-12.8 0.7v2.8c0 1.7 0.6 2.9 1.7 3.1 1 0.3 5.4 3.1 9.8 6.2 4.4 3.1 10.9 7.1 14.5 8.8 3.6 1.6 8.7 3.2 11.5 3.4 3.7 0.3 5.4 0 6.7-1.2 1-1 3.4-1.6 6.2-1.6 2.6 0 5.1-0.6 6-1.5 0.9-0.8 1.6-1.8 1.6-2.2 0-0.5 3.5-0.8 7.7-0.8 4.3-0.1 9.4-0.7 11.3-1.4 1.9-0.7 4.6-1.9 6-2.5 1.4-0.7 3.1-2.3 3.7-3.6 0.7-1.4 1.4-2.9 1.5-3.4 0.2-0.6 0.9-0.7 1.5-0.3 1 0.5 0.8 1.8-0.7 5.7-1.1 2.8-2 6.2-2 7.8 0 2.6-0.3 2.7-4.8 2.8-2.6 0-7.8 1.1-11.7 2.4-3.9 1.3-9.1 3.2-11.8 4.2-2.6 1-5.5 1.8-6.5 1.8-0.9 0-4.1 1.2-7.1 2.7-3.3 1.7-6.5 4.4-8.3 6.8-1.5 2.2-3.2 6.3-3.8 9-0.5 2.8-1.1 12.9-1.2 22.5-0.1 9.6 0 21 0.2 25.3 0.3 4.4 0.2 8.1-0.3 8.3-0.4 0.2-2.2-0.2-4-1-1.7-0.7-4.4-1.8-6-2.5-1.5-0.6-2.7-1.5-2.7-2.1 0-0.6 0.3-1 0.7-1 0.5 0 1.6-1.5 2.5-3.5 1.5-2.9 1.7-4.8 1-11-0.4-4.1-1-7.5-1.5-7.5-0.4 0 0.2-2.2 1.3-5 1.1-2.7 2-6.8 2-9 0-2.2-0.4-4.2-1-4.5-0.6-0.3-1.7 0.1-2.5 0.8-0.9 0.6-1.6 2.3-1.6 3.7 0.1 1.4-1 4.9-2.4 7.8-1.4 2.8-3.4 5.6-4.5 6.2-1.1 0.6-6.3 1-11.5 1-7.6 0-9.6 0.3-10 1.5-0.3 0.8-0.9 1.5-1.5 1.5-0.6 0-3.6-2.7-6.8-6-3.1-3.3-6.1-6-6.7-6-0.6 0-2.1-1.1-3.5-2.6-2.2-2.3-2.6-3.8-3.4-13.7-0.4-6.2-0.9-16.8-1-23.7 0-6.9-0.4-13.1-0.9-13.8-0.4-0.6-0.9-2.7-1.2-4.4-0.2-1.8-0.7-7.1-1.8-20.3l2.9-2.3c1.6-1.2 4-2.3 5.4-2.2 1.4 0 3.5 0.7 4.7 1.5 1.3 0.8 2.5 1.4 2.7 1.3 0.3-0.2 0.1-3.2-0.4-6.8-0.5-3.6-1-9.7-1-13.5 0-3.8 0.7-9.5 1.5-12.5 0.8-3 1.5-7.5 1.5-10 0-3.5-0.5-5-2.5-7-1.9-1.9-2.6-3.5-2.6-6.5 0-2.6 0.7-4.6 1.8-5.6 1-0.9 3.4-2 5.3-2.3 1.9-0.4 9.1-1.1 16-1.7 6.9-0.5 12.7-1.1 12.9-1.4 0.2-0.3-3.2-0.5-7.7-0.5-6 0-8.6-0.4-9.7-1.5-0.8-0.8-2.4-1.5-3.5-1.5-1.1 0-2.7-0.7-3.5-1.5-1-1-1.4-3.1-1.3-6.7 0.3-4.8 0.6-5.4 3.3-6.7 1.6-0.8 4.3-2.8 5.8-4.5 1.6-1.7 3.3-4.3 3.8-5.8q0.9-2.8 3.6-3.4c1.6-0.3 5.9-1.3 16.8-4l-0.6-8.9 16.8-0.7c9.2-0.4 23.3-1.2 31.3-1.9 8-0.6 18.3-1.4 23-1.8 4.7-0.5 9.9-0.6 11.5-0.3zm-167.5 28.3c2.2-0.1 4.1 0.5 5.1 1.6 0.9 1 2.6 3.8 3.7 6.3 1.2 2.5 2.2 5.3 2.2 6.3 0 0.9 0.6 1.7 1.2 1.7 0.7-0.1 2.5 0.8 4 2 2.2 1.6 2.8 2.8 2.8 5.8 0 2.5-1.1 5.3-3.5 9-2.9 4.3-3.5 6.1-3.5 10.7 0 5.3 0.1 5.5 2.7 5.5 1.6 0 3.5 0.7 4.3 1.5 1.3 1.4 1.7 1.4 3 0 0.9-0.9 3.1-1.6 5.2-1.5 3 0 4.3 0.6 5.8 2.8 1.2 1.5 2.1 3.8 2 5.2 0 1.4-0.7 3.4-1.5 4.5-1.3 1.8-1.2 2.2 2.6 6l-5.3 1.3c-2.9 0.7-6.7 2.1-8.3 3.1-1.7 1.1-5.5 5-8.7 8.7-3.1 3.8-8.5 9.9-12 13.5-3.4 3.7-9.8 9.4-14.1 12.8-4.2 3.3-8.8 6.3-10.2 6.6-1.4 0.3-2.7 1.4-3 2.5-0.3 1.1-1.1 2-1.8 2-0.6 0-3.6 1.6-6.5 3.5-4.7 3.1-5.5 3.4-7.7 2.3-2.1-1.1-3.1-1-6 0.5-1.9 0.9-3.9 1.5-4.5 1.2-0.6-0.3-1 0.5-0.9 1.8 0.1 1.2 0.1 3.1 0 4.2-0.1 1.2-2.3 3.6-5.7 6-3.1 2.2-6 3.9-6.5 3.8-0.5-0.2-0.9 0.3-1 1 0 0.6-4.6 4.2-10.2 7.8-5.6 3.7-13.4 8.3-17.2 10.3-3.9 2-7.7 3.6-8.5 3.6-0.8 0-2.2 0.7-3.1 1.7-0.9 1-2.1 3.2-2.6 4.8-0.5 1.6-0.7 4.1-0.3 5.5 0.4 1.6 1.5 2.7 3.1 3 1.7 0.4 2.5 1.3 2.9 6h-7.5c-6.2 0-7.9-0.4-9.5-2-1.3-1.3-2-3.3-2-10l-10.4-0.5-9.8-11c-5.4-6.1-10.5-12.6-11.4-14.5-1-2.4-1.4-6.5-1.4-13 0.1-6.6-0.5-12.2-2-18.5-1.2-4.9-2.8-13.3-3.6-18.5-0.8-5.2-1.9-12.9-2.5-17-0.6-4.1-0.9-11.1-0.7-15.5 0.4-7.1 0.2-8.4-1.9-11.5-1.3-1.9-2.4-4.6-2.4-6 0-1.4 0.9-3.7 2.1-5.2 1.5-2.1 2.8-2.8 5.5-2.8 2.7 0 4.1-0.7 6-3 1.8-2.2 3.7-3.2 6.7-3.6 2.4-0.3 7.7-1.2 11.8-2 4.1-0.8 13.1-2.9 20-4.5 6.9-1.7 17.9-4.3 24.5-5.9 6.6-1.6 18.3-4.3 26-6 7.7-1.8 17.6-4 22-5 4.4-0.9 12.7-2.8 18.5-4 5.8-1.3 12.7-2.9 15.5-3.6 2.7-0.6 6.6-1.3 8.5-1.3zm-146.9 49.4c6.4 7.9 7.2 8.3 8.9 7.5 1.1-0.6 2-2 2-3.2-0.1-1.3 0.5-2.9 1.2-3.5 0.7-0.7 3.3-1.7 5.8-2.2 4.4-0.9 4.4-0.9-2.5-0.9-3.8 0-8.9 0.5-11.2 1.1zm336.6 26.6c1.5 0 4.8 1.1 7.3 2.5 2.5 1.4 7 3.2 10 4 3 0.8 7.1 1.4 9 1.4 2.4 0 4.4 0.8 6.3 2.5 2.1 2 2.7 3.5 2.7 6.5 0 2.2-0.5 6.4-1.1 9.3-0.5 2.9-1.3 5.9-1.5 6.7-0.4 1.3-0.7 1.3-1.5-0.2-0.7-1.3-2.2-1.8-6.1-1.8-2.9 0-9.3 0.7-14.3 1.6-4.9 0.8-10.7 2.2-12.7 3-2.1 0.8-4.8 1.4-6 1.4-1.3 0-4.4 1-7 2.3-3.9 1.9-4.8 2-4.9 0.7-0.1-0.8-0.1-2.2-0.1-3.2 0.1-1-0.4-1.6-1-1.5-0.8 0.1-1.4-0.9-1.5-2.5-0.2-1.9 0.2-2.8 1.2-2.8 0.8 0 2.3-1 3.3-2.3 1.4-1.9 2.4-2.2 6.2-1.9 2.5 0.2 5.8-0.2 7.4-0.9 1.6-0.8 3.6-2.3 4.5-3.4 0.9-1.2 2.8-2.8 4.4-3.8 1.5-0.9 2.7-2.3 2.7-3.2 0-0.8-0.9-2.8-2-4.5-1.1-1.6-3.2-3.5-4.7-4.2-1.6-0.7-2.9-2.2-3.1-3.5-0.3-1.9 0.1-2.2 2.5-2.2zm-23.4 6c0.4 0 0.4 0.9 0 2.1-0.5 1.1-1 2.3-1.3 2.4-0.3 0.2-1.4-0.2-2.5-1-2-1.4-1.9-1.4 0.5-2.4 1.4-0.6 2.8-1.1 3.3-1.1zm56 30.6c0.5 0.3 0.9 6.5 0.8 14.4-0.1 10.6-0.4 13.9-1.3 13.7-0.8-0.2-1.6-3.3-2.1-8.8-0.4-4.6-0.8-10.3-0.9-12.5-0.1-2.2 0.4-4.7 1.2-5.6 0.7-0.9 1.7-1.4 2.3-1.2zm-68.1 19.3c0.7 0 2 1.1 2.8 2.5 0.8 1.4 1.3 2.7 1 3-0.3 0.3-1.5-0.8-2.8-2.5-1.5-1.9-1.9-3-1-3zm16.5 13c0.2 3.1 0.2 5.7 0.1 5.8-0.2 0.2-2.5 0.4-5.2 0.5-3.2 0.2-5-0.2-5.2-1-0.3-0.9 0.6-1.1 3.4-0.6 3 0.5 4 0.2 5-1.3 0.7-1 1.3-3.4 1.4-5.4 0.1-1.9 0.3-1 0.5 2zm52.4 4.2c0.4 1.3 0.8 3.8 0.8 5.6 0.1 1.8-0.3 3.5-0.9 3.7-0.5 0.3-1.2-0.5-1.5-1.7-0.2-1.2-0.5-3.6-0.6-5.3-0.1-1.7 0.2-3.5 0.6-3.9 0.5-0.4 1.2 0.3 1.6 1.6zm-200.9 14.8c0.4 0 0.8 1.5 0.8 3.3 0 2.3-0.8 3.9-2.8 5.5-2 1.6-4.5 2.3-10.2 2.8-4.1 0.3-9.6 1.2-12.2 2-2.7 0.8-4.8 1.1-4.8 0.7 0-0.4 0.9-1.7 2.1-2.8 1.6-1.4 3.6-2 7.8-2.1 3.5 0 7.1-0.8 9.6-2.1 2.2-1.1 5.1-3.2 6.4-4.7 1.4-1.4 2.8-2.6 3.3-2.6zm40.7 20c2.3 0 4.1 1.1 6.9 3.8 2 2.1 5.1 4.8 6.7 6 2.1 1.4 2.7 2.5 2 3.2-0.7 0.7-3.6-0.7-9.4-4.7-4.7-3.2-8.7-6.3-8.9-7-0.3-0.8 0.6-1.3 2.7-1.3z"/>
		<path id="Path 4" class="s4" d="m340.8 77.2c0.9 0.2 2.2 1.4 3 2.8 1 1.9 1.2 5.3 0.8 13.7-0.5 9.6-0.9 11.8-2.9 14.3-1.2 1.7-2.9 3-3.7 2.8-0.8-0.2-1.8-2.1-2.2-4.3-0.5-2.2-0.6-5.1-0.3-6.5 0.4-1.4 1.1-6.6 1.6-11.7 0.5-5.1 1.2-9.7 1.6-10.3 0.3-0.6 1.3-1 2.1-0.8z"/>
		<path id="Path 5" class="s1" d="m348.8 75.2c6.4 0.4 17.6 1.5 24.7 2.3 7.1 0.9 14.5 1.8 16.2 2 1.8 0.3 3.3 1 3.3 1.5 0 0.5-1.5 1-3.3 1-1.7-0.1-3.9 0.6-4.7 1.5-0.8 0.9-2.3 1.6-3.3 1.5-0.9 0-2.3 1.2-3 2.7-1 2.2-2.4 3.1-7 4.3q-5.7 1.5-5.7 3c0 0.8-3.2 3.7-7.2 6.3-5.9 3.9-8 4.8-14.3 4.2l0.3-11c0.2-6 0-12.2-0.6-13.8-0.5-1.5-1.7-3.1-2.6-3.5-0.9-0.4-2.1-0.2-2.7 0.3-0.5 0.5-1.5 5.7-2.1 11.5-0.7 5.8-1.1 12.7-0.9 20.5l-3.7-0.6c-2-0.3-4.3-0.8-5-1.2-0.6-0.4-3.6 0.3-6.5 1.4-4.6 1.9-5.5 2-7.7 0.8-1.4-0.8-2.9-1.9-3.5-2.6-0.6-0.7-2.1-1.5-3.5-1.8-2-0.5-2.9-0.1-4.3 1.9-1.4 2.1-2.1 2.4-3.7 1.6-1.1-0.5-2-1.7-2-2.5 0-0.8 2.6-3.9 5.8-6.8 3.3-2.8 10-7.7 15.1-10.7 5.1-3 11.1-7.3 13.4-9.6 2.3-2.2 4.8-4.3 5.5-4.5 0.7-0.2 6.5-0.1 13 0.3zm18.4 24.8c1 0 2.5 0.7 3.3 1.5 0.8 0.8 1.5 1.9 1.5 2.5 0 0.5 1.1 1.2 2.5 1.5 1.3 0.3 2.7 1.3 3 2.3 0.3 0.9 1.8 2.5 3.5 3.4 1.6 1 3 2.5 3 3.3 0 0.8 1.2 1.8 2.7 2.1 1.6 0.3 5.3 1.2 8.3 2 3 0.8 5.8 2 6.2 2.6 0.4 0.7 0.8 2.1 0.8 3 0 1-2.2 4.2-4.9 7-2.7 2.9-6.3 8.4-8.1 12.3-2.1 4.5-3 7.8-2.6 9.2 0.3 1.3 1.6 2.7 2.8 3.2 1.4 0.6 4 0.6 6.8-0.1 2.5-0.5 8.6-3 13.5-5.4 6.1-3.1 9.7-4.4 11.2-4 1.3 0.3 2.3 1.2 2.3 1.8 0 0.7-1.2 1.9-2.7 2.6-1.5 0.7-8.7 4.8-15.8 8.9-7.1 4.2-15.1 9.1-17.8 11-4.3 3-4.6 3.5-3.5 5.3 1.1 1.7 1 2.2-0.2 3-0.8 0.6-3.1 1.4-5 2-1.9 0.5-5 1-6.8 1-2.5 0-3.4-0.5-4.2-2.5-0.6-1.4-1-5-1-8 0-3-0.2-6.2-0.5-7-0.4-1.3-0.9-1.2-3 0.5-1.4 1.1-3.1 1.7-3.8 1.3-0.6-0.3-10.2-0.6-21.2-0.5-13.4 0.1-24.4-0.5-33.5-1.6-12.3-1.5-13.5-1.9-13.5-3.7 0-1.9 0.5-2 19.5-1.6 12.1 0.2 23.3-0.2 29.5-1 5.5-0.7 11.1-1.3 12.5-1.3 1.7-0.1 2.8 0.7 3.7 2.6 0.7 1.6 1.8 2.8 2.4 2.8 0.6 0 2.4-1.3 4-3 2.6-2.7 2.9-3.5 2.4-8-0.4-3.6-0.1-5 0.7-5.1 0.7-0.1 1.7-0.1 2.3 0 0.6 0 1-3.6 1-9.2 0-5 0.5-11.9 1.1-15.2 0.9-4.9 0.9-6.2-0.2-7.3-0.8-0.6-1.4-1.7-1.4-2.2 0-0.6-0.7-1-1.5-1-0.8 0-2.4-1-3.4-2.3-1.6-1.8-1.8-2.6-0.9-4.7 0.6-1.3 1.6-2.8 2.2-3.2 0.6-0.4 1.9-0.8 2.8-0.8zm-144.7 19.1c0.5-0.1 2 0.6 3.2 1.4q2.3 1.5 2.3 4.5c0 2.1-0.7 3.3-2.3 4.1-1.2 0.6-6 1.8-10.7 2.5-4.7 0.8-8.7 1.2-9 0.9-0.3-0.3 0.2-0.5 1-0.5 0.8 0 2.3-0.8 3.2-2 1.4-1.5 1.6-2.5 0.8-4-0.6-1.1-2-2-3.3-2-1.2 0-13.9 2.5-28.2 5.5-14.3 3-38.2 7.9-53 11-14.9 3.1-27.3 5.8-27.8 6.1-0.4 0.2-0.7 0.8-0.7 1.4 0 0.6-0.8 2.2-1.8 3.7-1.6 2.5-1.7 4.8-1.2 23.6 0.3 11.4 0.2 20.7-0.3 20.7-0.4 0-0.9-0.7-1.2-1.5-0.3-0.8-0.5-3.5-0.5-6 0-2.5-0.3-4.5-0.8-4.5-0.4 0-0.6-1.7-0.4-3.8 0.2-2.6-0.2-4.2-1.5-5.5-1.7-1.7-1.7-1.8 0.4-1.7 2.2 0 2.3-0.2 2.3-11 0-10.4 0.1-11.1 2.5-13.3 1.3-1.2 2.5-3.1 2.4-4.2 0-1.1 0.6-2.6 1.3-3.3 0.7-0.6 7.1-2.1 14.3-3.2 7.1-1.2 34.4-5.8 60.5-10.4 26.1-4.6 47.9-8.4 48.5-8.5zm-117.5 57.9c0.5 0.8 1.1 4.9 1.5 9 0.5 5.9 0.4 7.9-0.8 9.5-0.9 1.1-1.7 1.8-1.9 1.5-0.2-0.3-0.2-5.2 0-11 0.2-6.4 0.7-9.9 1.2-9z"/>
		<path id="Path 6" class="s2" d="m206.8 124.1c2.4-0.1 3.5 0.5 4.3 2.2 0.9 1.8 0.7 2.5-0.8 4-1.3 1.2-11.7 3.8-35.8 8.6-18.7 3.8-42.3 8.7-71 14.7l0.3 19.5c0.3 12.5 0 20.4-0.7 22.2-0.8 1.9-1.8 2.7-3.6 2.7-1.4 0-2.9-0.8-3.4-1.7-0.5-1-1-11.2-1.1-22.8-0.1-17.6 0.2-21.2 1.4-22.5 0.9-0.8 1.6-2.1 1.6-2.7 0-0.7 0.3-1.5 0.7-1.7 0.5-0.3 13.2-3 28.3-6.2 15.1-3.1 38.5-8 52-10.9 13.5-2.9 26-5.3 27.7-5.4zm-118.8 49.9c0.9 0 2.2 0.5 2.9 1.2 0.7 0.7 1.2 2.8 1.2 4.6 0 1.7-0.6 3.5-1.3 3.8-0.6 0.4-2.3-0.3-3.7-1.3-1.4-1.1-2.6-2.8-2.8-3.7-0.1-0.9 0.3-2.3 0.9-3.1 0.6-0.8 1.9-1.5 2.8-1.5z"/>
	</g>
	<path id="Path 0" fill-rule="evenodd" class="s5" d="m186.8 180c1.2 0 4.6 1.4 7.4 3.1 2.9 1.7 8.8 5.6 13 8.5 4.3 3 8 5.8 8.3 6.4 0.3 0.6-0.1 1.7-0.8 2.6-0.6 0.8-1.8 1.3-2.5 1-0.9-0.5-1 0.2-0.2 3.1 0.5 2.1 1.3 11 1.6 19.8 0.6 14.9 0.5 16.1-1.2 17.6-1.1 0.9-5.3 2.1-9.4 2.8-4.1 0.6-11.1 1.2-23.5 1.6l-1-4.3c-1-4.2-1-4.2-5.5-4.2-2.9 0-5.1-0.7-6.3-1.8-1.5-1.4-1.8-3.4-1.7-11.2 0-5.2-0.3-11.5-0.6-14-0.6-4-0.9-4.5-3-4.3-1.5 0.2-2.6-0.3-3-1.5-0.5-1.2 1.6-4 8.2-10.5 4.9-4.9 10.9-10.1 13.4-11.7 2.5-1.6 5.5-3 6.7-3zm-16 18.7c-3.1 3.1-3.5 3.9-2.2 4.5 0.9 0.5 1.5 2.2 1.5 4.5 0 2.1 0.6 8.4 1.2 14.1 1.1 8.6 1.6 10.2 3 10.2 1.3 0 2-1.1 2.4-3.8 0.3-2 0.2-8.5-0.3-14.4l-0.8-10.7c4.3-1.6 5.9-1.9 6.5-1.6 0.5 0.3 1 3.2 1 6.5 0 4.3 0.3 5.9 1.2 5.6 0.7-0.2 2.2-0.6 3.3-1 1.2-0.3 3.3 0.2 5 1.2 1.6 1 3.9 3.6 4.9 5.8 1 2.1 2.1 6.6 2.4 9.9 0.3 4 0.1 6.3-0.6 6.7-0.7 0.5-4.4 1.1-8.2 1.5-5.7 0.7-7 1.1-7 2.5 0 1.6 1 1.8 10.7 1.3 6-0.3 11.2-1 11.8-1.6 0.6-0.6 1-7.3 0.9-16.2 0-8.4-0.3-16.4-0.7-18-0.5-1.8-0.2-3.2 0.8-4.2 1.3-1.3 0.9-1.9-3.8-5.4-2.8-2.1-7.5-5.3-10.2-7-2.8-1.7-5.5-3.1-6.1-3.1-0.7 0-3.8 2-7 4.4-3.3 2.5-7.6 6.2-9.7 8.3zm12.7 27.7l-0.4 5.6c10.8 0 11-0.1 11-2.8 0-1.5-0.4-4.2-1-6-0.5-1.7-1.9-3.6-3-4.2-1.1-0.6-2.1-1-2.3-1-0.1 0-1.1 0.6-2.1 1.4-1.3 0.9-1.9 3-2.2 7z"/>
	<path id="Path 0" fill-rule="evenodd" class="s6" d="m236.8 86c0.9-0.1 2.5 0.7 3.4 1.7 0.9 1 2.8 4.5 4.3 7.8 1.4 3.3 3.5 7.8 4.6 10 1.1 2.2 1.9 4.9 1.7 6-0.2 1.2-1.2 2.1-2.6 2.3-1.5 0.1-2.9-0.8-4.5-3-1.3-1.8-3.5-6-7.2-15.1l-6.5 0.7c-3.6 0.4-8.5 1.3-11 2.1-2.5 0.8-9.9 2.6-16.5 4-6.6 1.4-17.6 4.3-24.5 6.5-6.9 2.1-15.4 4.6-19 5.5-3.6 0.9-11.2 2.5-17 3.5-5.8 1.1-16.4 2.4-23.5 3.1-7.2 0.6-16.8 1.4-21.4 1.8-7.5 0.5-8.6 0.9-12.6 5.9l7 6.3 16.5-0.4c11.4-0.3 18.5-0.9 23-2.1 3.6-1 9-2.4 12-3.2 3-0.7 8.2-2 11.5-2.8 3.3-0.8 8.2-1.7 11-2.1 2.7-0.4 9.9-1.9 16-3.2 6-1.4 13.2-2.9 16-3.4 2.7-0.5 13.8-1 24.5-1 10.9-0.1 20.4 0.3 21.5 0.8 1.1 0.6 2.3 1.8 2.7 2.7 0.5 1 0.2 2.2-1 3.2-1.6 1.5-1.6 1.7 0 4.5 1.7 2.8 1.7 3 0 4.5-1 1-2.5 1.3-3.7 0.9-1.1-0.3-7.9-1.1-15-1.6-9-0.7-16.7-0.7-25 0.1-6.6 0.6-17.9 2-25 3.1-7.2 1.1-17.9 3.3-24 4.9-6.1 1.6-12.1 3.1-13.5 3.4-1.4 0.3-8 1.1-14.8 1.6-6.7 0.6-14.1 1.7-16.5 2.7-2.3 0.9-4.5 1.9-5 2.2-0.4 0.3 0 2.3 0.8 4.3 0.8 2.1 1.3 4.4 1 5-0.2 0.7-1.1 1.6-2 2-0.8 0.5-2 0.6-2.5 0.3-0.7-0.3-0.9 5.8-0.8 17.8 0.2 11.7 0.7 18 1.3 17.7 0.5-0.3 1-1.8 1-3.5 0-1.7-0.4-8.5-0.8-15.3-0.6-10.2-0.5-12.4 0.8-13.7q1.5-1.5 3.2-0.6c1 0.4 2.2 1.7 2.6 2.7 0.5 1.1 1.3 8.9 1.7 17.4 0.5 8.5 1.5 20.7 2.4 27 0.8 6.3 2.4 17.3 3.6 24.5 1.1 7.2 2.7 16.8 3.6 21.5 0.9 4.7 1.8 10.8 2.1 13.5 0.5 4.1 0.2 5.4-1.3 7.1-1.6 1.7-2.7 1.9-6.4 1.5-3.9-0.5-4.7-1.1-6.2-4.1-0.9-1.9-1.7-2.9-1.8-2.2 0 0.6-0.7 1.9-1.6 2.7-0.8 0.8-2 1.5-2.5 1.5-0.5 0-1.5-0.6-2.2-1.2-0.7-0.7-1.6-3.9-2-7-0.6-5-1.3-6.4-4.7-9.8-2.2-2.2-4-4.6-4-5.2 0-0.7-1.5-3.3-3.4-5.8-1.9-2.5-5.4-5.8-7.8-7.4-2.3-1.7-4.9-3.7-5.6-4.5-0.7-0.9-1.2-1.9-1.2-2.3 0-0.5 0.8-1.5 1.7-2.4 1-0.8 2.4-1.3 3-1 0.7 0.3 1.3-0.1 1.3-0.9 0-0.8-0.9-6.1-2.1-11.7-1.1-5.7-2.9-17.1-4-25.3-1.1-8.2-2.6-20.4-3.4-27-0.8-7.1-1.2-15.2-0.8-20 0.3-4.4 1-8.8 1.4-9.7 0.5-1 1.8-1.8 2.9-1.8 1.1 0 2.3 0.8 2.7 1.8 0.3 0.9 0.7 7.5 0.8 14.7 0.1 7.5 1.1 19.1 2.3 27.5 1.3 8 2.7 18.1 3.2 22.5 0.5 4.4 1.7 12.1 2.6 17 0.9 4.9 2.3 10.8 3 13 0.8 2.2 1.4 4.9 1.4 6 0 1.1 2.2 4.5 4.7 7.5 2.6 3 8.2 9 12.5 13.3 4.3 4.2 8 7.3 8.3 6.7 0.3-0.6 0.3-1.3 0.1-1.7-0.3-0.5-1.2-5.3-2.1-10.8-0.9-5.5-2.5-15.8-3.6-23-1.1-7.2-2.3-16-2.7-19.7-0.4-3.6-1-6.9-1.5-7.2-0.4-0.3-1.7 0.1-3 0.9-1.3 1-2.9 1.2-4.1 0.8-1-0.5-2.7-2.4-3.6-4.3-1-1.9-3.5-6.2-5.7-9.5-2.1-3.3-4.2-7.2-4.6-8.8q-0.7-2.7 1.3-7.7c1.1-2.7 2-6.5 2-8.2 0-1.8 0.5-4.9 1.1-6.8 0.8-2.6 0.8-3.8 0-4.5-0.6-0.6-1.1-1.7-1.1-2.5 0-0.8 0.7-2.2 1.4-3 1.3-1.3 1.1-2.2-1-6.8-1.9-4.1-3.5-5.9-7.4-8.2q-5-3-5-5c0-1.1 0.8-2.4 1.7-2.9 1-0.5 2.5-0.7 3.3-0.4 0.9 0.2 2.2-0.9 3.2-2.7 1-1.6 3.3-3.9 5-4.9 2.5-1.5 6-2.1 14.8-2.6 6.3-0.3 17.6-1.3 25-2.1 7.4-0.8 18-2.4 23.5-3.5 5.5-1.1 14.5-3.4 20-5.1 5.5-1.7 13.8-4.1 18.5-5.4 4.7-1.4 11.2-2.9 14.5-3.5 3.3-0.5 9.8-2.1 14.5-3.5 4.7-1.4 10.5-2.8 13-3.1 2.5-0.3 4.9-1 5.3-1.4 0.5-0.5 1.6-0.9 2.5-0.9zm-146.8 96c0.5 0 1-1.6 1-3.5 0-1.9-0.5-3.5-1-3.5-0.5 0-1 1.6-1 3.5 0 1.9 0.5 3.5 1 3.5zm326.3-120.8c2.6-0.1 5.6 0.3 6.7 0.8 1.2 0.6 2 2 2 3.5 0 2 1.7 3.7 7.7 8.2 4.3 3.2 11.7 9.6 16.4 14.3 6.2 6.1 8.8 9.4 9.3 11.8 0.4 2 0 4.3-0.9 6.2-0.8 1.7-4.1 4.7-7.3 6.7-3.1 2-8.8 5.3-12.6 7.2-3.8 2-7 4.3-7.1 5.1-0.1 0.8-0.5 4-0.9 7-0.4 3-0.5 7.6-0.2 10.3 0.5 4.1 0.8 4.6 2.3 3.8 1.1-0.6 2.5-0.6 3.5 0 1 0.5 1.8 1.8 1.8 2.9 0 1.1-1.5 3.1-3.3 4.4-1.7 1.3-7.5 4.7-12.7 7.6-5.2 2.9-11.9 7.1-14.8 9.4-2.9 2.3-5.3 4.3-5.3 4.6 0.1 0.3 0.9 2.2 1.8 4.3 1.6 3.5 2.5 4.1 9.3 6.3 4.1 1.3 8.2 3 9 3.8 1.3 1.2 3.2 1 13-1.6 6.3-1.6 12.2-3.3 13-3.7 1.1-0.6-0.5-2-6-5.5-4.1-2.5-9-5.1-10.8-5.6-2.6-0.8-3.9-0.6-6.7 1-2.1 1.2-4.1 1.7-5 1.3-0.9-0.5-1.8-1.4-2-2-0.3-0.7 0.6-2.5 1.8-4 1.3-1.6 3.9-3.4 5.8-4.2 2.7-1.1 4.2-1.2 6.9-0.3 1.9 0.6 6.6 3 10.5 5.3 3.9 2.3 8 5.1 9.3 6.3 1.2 1.1 2.2 2.8 2.2 3.6 0 0.8-0.7 2.2-1.4 3-1.2 1.3-1.2 1.8 0 3.5 1.1 1.6 1.7 1.7 2.6 0.8 0.7-0.7 2-1.3 3-1.3 1 0 2.2 1.2 2.9 2.8 0.6 1.7 1 13.7 0.9 32.7-0.1 16.5-0.6 30.8-1.1 31.8-0.5 0.9-1.5 1.7-2.2 1.7-0.6 0.1-1.9-0.7-2.7-1.6-1.2-1.4-1.6-7-2-32.3-0.4-26.5-0.7-30.5-2-30.2-0.8 0.2-5.3 1.4-10 2.7-4.7 1.3-11 3.1-14 3.9-3 0.8-8.4 2.2-18.5 5.1l-0.5 19.6c-0.4 15.7-0.8 20.1-2 21.3-0.8 0.9-3.5 1.9-6 2.2-2.5 0.3-6.2 0.1-8.3-0.6-2.4-0.7-4-2-4.7-3.6-0.6-1.4-1-4.6-1-7.3 0-2.6-0.7-7.3-1.5-10.5-0.8-3.1-1.5-7.7-1.5-10.2 0-2.5-0.3-4.5-0.8-4.5-0.4 0-3 0.7-5.7 1.5-2.8 0.8-11.1 3.1-18.5 5-7.4 1.9-15.8 4.1-18.5 4.9-2.8 0.8-6.2 1.7-10.5 2.6l-0.1 68.5 5.3 3.7c2.9 2.1 5.6 3.8 6 3.8 0.5 0 2-0.9 3.5-2 1.9-1.3 5.7-2.4 11.3-3.1 4.7-0.5 13.4-2.3 19.5-3.9 6-1.6 17.1-5 24.5-7.5 7.4-2.6 16.2-5.6 19.5-6.7 3.3-1.1 11.1-4 17.2-6.4 6.2-2.4 13.4-4.6 16-4.8 2.7-0.3 8.4-1.6 12.8-2.9q8-2.5 9.7-1.6c1 0.5 1.8 1.7 1.8 2.6 0.1 1-0.5 2.3-1.2 3-0.7 0.6-4.2 2.1-7.8 3.2-3.6 1.2-9.2 2.4-12.5 2.8-3.3 0.3-8 1.5-10.5 2.6-2.5 1-10.1 3.9-17 6.4-6.9 2.5-17 6-22.5 8-5.5 1.9-14.7 4.8-20.5 6.4-5.8 1.6-12.8 3.6-15.5 4.4-2.8 0.8-8.1 1.8-11.9 2.2-3.7 0.5-7 1.1-7.2 1.5-0.2 0.5 1.2 1.9 3.1 3.3 2 1.4 3.5 3.4 3.5 4.5 0 1.1-0.8 2.4-1.8 2.9-1.2 0.7-3.4 0-8.2-2.6-3.6-2-9.2-5.4-12.5-7.5-3.3-2.1-7.4-4.6-9.1-5.5-1.7-1-5.7-3.5-9-5.6-3.2-2.1-10.6-6.4-16.4-9.6-5.8-3.1-14.8-9-20-12.9-5.3-4-10.5-7.2-11.8-7.2-1.2 0-2.6-0.9-3.2-2-0.6-1.2-1-14.4-1-33.3 0-24.3-0.3-32.1-1.4-35.2-0.7-2.2-2.3-6.3-3.4-9-1.7-4-1.9-5.3-0.9-6.8 0.7-1 1.9-1.9 2.7-2 0.8-0.1 2.6-1 4-1.9 1.4-1 2.9-1.4 3.5-1.1 0.5 0.3 2.2 1.5 6.5 4.3v-10.5c0-9.5-0.2-10.4-1.8-9.9-0.9 0.3-8 1-15.7 1.6-10.2 0.8-14.5 1.5-15.8 2.7-1.4 1.2-3.6 1.5-8.5 1.3-3.7-0.1-18.2 0.5-32.2 1.3-14 0.8-27.3 2-29.5 2.5-2.2 0.6-13.2 1.3-24.5 1.7-19.2 0.5-20.8 0.7-24.8 2.9-2.6 1.5-4.8 2.1-5.7 1.6-0.9-0.4-1.8-1.3-2-2-0.3-0.6-0.1-2.1 0.5-3.2 0.5-1.1 3.1-3 5.7-4.2 4.2-1.9 7.2-2.3 24.3-2.9 10.7-0.4 24.2-1.4 30-2.3 5.8-0.9 18.6-2 28.5-2.6 9.9-0.5 19.9-1 22.2-1 2.5 0 4.1-0.4 3.8-1-0.3-0.6-0.3-1.6 0-2.3 0.2-0.6 1.1-1.5 2-2 0.8-0.4 3.4 0 5.7 0.8 2.5 0.9 7.6 1.5 12.3 1.5 4.4 0 10.9-0.5 14.5-1.1 3.6-0.5 7.6-1.2 9-1.5 2.5-0.5 2.5-0.5 1.7-8.7-0.4-4.5-0.7-9.2-0.7-10.5 0-1.2-0.6-2.2-1.3-2.2-0.6 0.1-2.3 0.7-3.7 1.4-1.4 0.8-3.7 3.4-5.1 5.8-1.6 2.7-3.3 4.4-4.7 4.5-1.3 0.2-2.6-0.5-3.2-1.5-0.5-0.9-0.7-1.9-0.4-2.2 0.2-0.3-0.3-1.2-1.1-2-0.9-0.8-1.6-2.3-1.5-3.3 0-0.9 1.5-2.6 3.2-3.6 1.8-1.1 4-3.4 4.8-5.3 0.8-1.8 6.4-8.4 12.5-14.6 6-6.3 15-14.4 19.9-18 4.9-3.7 13.3-10 18.7-14 5.5-3.9 10.6-7.2 11.4-7.2 0.8 0 1.7 0.7 2 1.5 0.3 0.8 1.1 1.5 1.7 1.5 0.7 0.1 2-0.6 2.8-1.5 0.8-0.9 2.6-1.5 4-1.3 1.6 0.2 2.6 1 2.8 2.3 0.3 1.4-1.2 3.4-4.5 6.3-2.6 2.4-7.5 5.8-10.8 7.7-3.3 1.8-8.9 5.9-12.5 9.1-3.6 3.3-8.6 7.6-15.5 13.3l31.2 0.1c29 0 31.3-0.1 31.8-1.8 0.2-0.9 2.4-3.3 4.7-5.3 2.4-1.9 5.4-4.2 6.8-5.1 1.4-0.9 6.3-4 11-7 4.7-3 12.1-7.5 16.5-9.9 5.8-3.1 7.4-4.5 6-4.7-1.1-0.2-6.4 0.1-11.8 0.7-5.3 0.6-13.9 1.1-19 1.2-5 0-12.3 0.3-16.1 0.7-4.1 0.4-7.4 0.3-8.3-0.3-0.8-0.6-1.3-1.9-1.1-3 0.2-1.1 1.7-2.7 3.3-3.5 2.2-1 8.8-1.6 23.5-2.1 11.3-0.4 23.4-1.2 27-1.8 3.6-0.6 8.1-1.2 10-1.4 1.9-0.2 5.6-0.5 8.2-0.5zm-5.9 13.9c-1.6 1.5-6.9 4.8-11.8 7.4-4.9 2.7-12.9 7.3-17.7 10.4-4.8 3.1-8.7 5.9-8.7 6.3-0.1 0.5 0.9 1.2 2.1 1.7 1.3 0.5 3.4 2.1 4.8 3.6 1.4 1.5 5.1 4 8.2 5.6 3.2 1.6 8.9 5.8 12.8 9.4 3.9 3.6 7.3 6.5 7.7 6.5 0.5 0 8-3.6 16.8-8.1 8.8-4.5 18.4-9.7 21.2-11.5 2.9-1.9 5.3-3.9 5.3-4.4 0-0.6-3-4.2-6.8-8.1-3.7-3.9-11.6-10.9-17.7-15.6-6.1-4.7-11.5-8.8-12.1-9-0.6-0.3-1.1 0.3-1.2 1.3-0.1 1.1-1.4 3.1-2.9 4.5zm-43.8 29.9c1.4 0.3 2.7 0 3-0.8 0.3-0.6 0.5-1.7 0.5-2.2 0-0.6-0.6-1-1.4-1-0.7 0-2 0.8-2.9 1.7-1.5 1.7-1.5 1.8 0.8 2.3zm2.9 6.5c-1.3 1.3-6.9 1.5-37.5 1.5-19.9 0-38.1 0.4-40.9 1-4 0.8-5.1 1.5-5.8 3.5-0.5 1.9-0.2 2.8 1.1 3.8 1 0.6 2.2 3 2.7 5.2 0.5 2.2 1 9.1 1 15.2v11.3h73c0.8-3.5 1-11.1 1-19.3 0-8.1 0.4-15.6 1-16.7 0.6-1.1 1.9-2 3-2 1.1 0 2.5 1 3.1 2.2 0.8 1.6 1.1 7.6 0.8 18.8-0.4 14.3-0.7 16.9-2.4 19.5-1.1 1.6-3.2 3.4-4.8 4l-2.7 1c0 27.7 0.3 31.5 1.2 31.5 0.7 0 2.4-1.1 3.8-2.6 1.4-1.4 5.2-4.7 8.5-7.3 3.3-2.7 8-6 10.5-7.4 2.5-1.4 9.5-6.1 15.7-10.4 6.1-4.3 13.4-9 16.2-10.6 4.9-2.6 5.1-2.8 4.3-6-0.4-1.7-0.7-6.7-0.7-11 0-4.2-0.3-7.7-0.8-7.7-0.4 0-3.1 1.2-6 2.6-3.7 2-6 2.5-8.2 2.1-1.8-0.4-5.2-2.9-8.5-6.2-3-3.1-8.9-7.6-13-9.9-4.1-2.4-8.6-5.6-10-7-1.4-1.5-2.8-2.6-3.3-2.6-0.4 0-0.7 0.4-0.7 1 0 0.5-0.7 1.7-1.6 2.5zm-94.6 13.5c0.1 0.6 0.9 1 1.7 1 0.8 0 1.9 0.8 2.4 1.7 0.5 1 1.1 1.6 1.4 1.3 0.2-0.3 0.7-2 1.1-3.8 0.3-1.7 0.2-3.4-0.2-3.6-0.5-0.2-2.2 0.2-3.7 1-1.6 0.8-2.8 1.9-2.7 2.4zm7.2 61c49.7 0 62.8 0.4 64 1 1.1 0.6 2 1.9 2 3 0 1.1-0.9 2.4-2 3-1.2 0.6-12.6 1-27.8 1-14.2 0-26.2 0.3-26.5 0.7-0.4 0.5 0.4 1.7 1.6 2.8 1.3 1.1 2.5 2.4 2.8 3 0.2 0.6 3.8 2.5 7.9 4.4 4.1 1.9 10.6 4.5 14.5 5.8 3.9 1.3 7.6 2.8 8.2 3.4 0.8 0.6 3.6 0.4 7.5-0.5 3.5-0.8 12.6-3 20.3-5.1 7.7-2 17.4-4.5 21.5-5.6 4.1-1 7.6-1.9 7.7-1.9 0.2 0 0.3-0.7 0.3-1.5 0-0.8-2.3-2.6-5.3-3.9l-5.2-2.5c-7.4 6.9-10 8.9-10.5 8.9-0.6 0-1.7-0.7-2.5-1.5-0.9-0.9-1.3-2.5-1-4 0.4-2 0.1-2.5-1.5-2.5-1.1 0-2.5-0.9-3-2-0.6-1.1-1-8.5-1-16.5v-14.5c-52.3 0-62.7-0.4-65.4-1.3-2.1-0.6-4-1.8-4.2-2.5-0.2-0.6-0.8-1.2-1.4-1.2-0.6 0-1 5.7-1 15zm98.8 1.5c0.1 0.3 2.6 1.8 5.4 3.4 2.9 1.5 6 3.6 6.8 4.5 0.8 1 2.9 1.7 4.7 1.6 2.5 0 3.6-0.6 4.5-2.5 1.2-2.3 1-2.8-1.9-5.3-1.7-1.5-3.6-4.4-4.2-6.5-0.6-2-1.4-3.7-1.9-3.7-0.4 0-3.6 1.8-7.1 4-3.5 2.2-6.3 4.2-6.3 4.5zm-110.1 37l0.3 31c8.9 6.1 14 9.7 17 12 3 2.3 10 6.5 15.5 9.5 5.5 2.9 11.5 6.1 13.2 7.1l3.3 1.9v-60c-4.8 0-6.4-0.7-7-1.8-0.6-1.2-0.5-2.4 0.5-4 1.5-2.1 1.3-2.3-5.3-5.3-3.7-1.7-8.3-3.7-10.2-4.4-1.9-0.7-5.4-1.8-7.8-2.4-2.3-0.6-5.6-2.2-7.2-3.6-2.1-1.8-3-3.4-3-5.5 0-1.8-1.3-4.8-3.5-7.8-1.9-2.6-4.6-6.2-6-8-1.4-1.7-3.1-3.2-3.9-3.2-1.2 0-0.9 1.5 1.2 6.7 2.7 6.8 2.7 6.9 2.9 37.8zm120.1-11.2c0.1 3.4 0.9 8.4 1.7 11.2 0.9 2.7 1.5 6.9 1.5 9.2 0 4.1 0.1 4.3 3 4.3h3c0-25.5-0.3-29-1.3-29-0.6 0.1-1.9-0.6-2.7-1.5-0.8-0.9-1.7-1.5-2-1.5-0.3 0.1-1.2 0.4-1.9 0.7-1.1 0.3-1.4 2-1.3 6.6zm-138.6 42.7c0.5 0 1.5 0.7 2.3 1.5 0.8 0.8 1.5 1.9 1.5 2.5 0 0.6-0.9 1.9-2 3-1.1 1.1-3 2.6-4.3 3.4-1.2 0.8-4.5 1.9-7.2 2.5-2.8 0.5-15.4 1.5-28 2.1-12.7 0.6-30.2 1.9-39 3-8.8 1.1-21.6 2.4-28.5 2.9-7.3 0.5-14.1 1.6-16.3 2.5-2 0.9-4.4 1.3-5.2 0.8-0.9-0.4-1.8-1.3-2-2-0.3-0.6-0.1-2 0.4-3 0.5-0.9 3.7-2.7 7.2-4 4.7-1.6 8.6-2.2 14.9-2.2 4.7 0 13-0.7 18.5-1.5 5.5-0.8 14.7-1.9 20.5-2.5 5.8-0.6 18.1-1.5 27.5-2 9.3-0.5 20.2-1.1 24.1-1.2 5.9-0.3 7.8-0.8 11-3.1 2.1-1.5 4.2-2.7 4.6-2.7z"/>
</svg>