<svg version="1.2" xmlns="http://www.w3.org/2000/svg" viewBox="0 0 20 21" width="20" height="21">
	<title>gear</title>
	<style>
		.s0 { fill: #000000 } 
	</style>
	<path id="gear" fill-rule="evenodd" class="s0" d="m10.3 20.7h-1.3c-1.5 0-2.6-1.2-2.6-2.6q-0.1-0.3-0.2-0.6c-0.2-0.2-0.4-0.4-0.7-0.5-0.3-0.1-0.6-0.1-0.9 0.1-0.6 0.3-1.3 0.4-2 0.2-0.7-0.2-1.3-0.6-1.6-1.2l-0.6-1.1c-0.8-1.3-0.3-2.9 0.9-3.6 0.4-0.2 0.6-0.6 0.6-1 0-0.5-0.2-0.8-0.6-1-1.2-0.8-1.7-2.4-0.9-3.7l0.6-1.1c0.8-1.2 2.4-1.7 3.7-1q0.2 0.2 0.5 0.2c0.6 0 1.2-0.5 1.2-1.1 0-0.7 0.2-1.4 0.7-1.9 0.5-0.5 1.2-0.8 1.9-0.8h1.3c0.7 0 1.4 0.3 1.9 0.8 0.5 0.5 0.8 1.2 0.7 1.9q0 0.3 0.2 0.5 0.2 0.5 0.7 0.6 0.5 0.1 0.9-0.1c1.2-0.8 2.9-0.3 3.6 0.9l0.6 1.1q0.1 0.1 0.1 0.1c0.6 1.3 0.2 2.8-1 3.6q-0.3 0.1-0.5 0.4c-0.1 0.2-0.2 0.6-0.1 0.9q0.1 0.4 0.6 0.7c0.6 0.3 1 0.9 1.2 1.6 0.2 0.7 0.1 1.4-0.3 2l-0.6 1.1c-0.8 1.3-2.4 1.7-3.7 1q-0.2-0.2-0.5-0.2c-0.3 0-0.6 0.1-0.8 0.3q-0.4 0.4-0.4 0.9c0 1.4-1.2 2.6-2.6 2.6zm-5.1-5.3q0.3 0 0.7 0.1c0.7 0.2 1.2 0.7 1.6 1.3q0.3 0.6 0.4 1.3c0 0.6 0.5 1.1 1.1 1.1h1.3c0.6 0 1.1-0.5 1.1-1.1 0-0.7 0.3-1.4 0.8-1.9 0.5-0.5 1.2-0.8 1.9-0.8q0.7 0 1.3 0.4c0.5 0.3 1.2 0.1 1.6-0.5l0.6-1.1c0.2-0.2 0.2-0.5 0.1-0.8 0-0.3-0.2-0.6-0.5-0.7-0.6-0.4-1.1-1-1.2-1.7-0.2-0.6-0.1-1.4 0.2-2q0.4-0.6 1-0.9c0.6-0.4 0.7-1.1 0.4-1.6q0-0.1 0-0.1l-0.6-1c-0.3-0.6-1-0.8-1.6-0.4-0.6 0.3-1.3 0.4-2 0.2-0.7-0.1-1.3-0.6-1.6-1.2q-0.4-0.6-0.4-1.3 0-0.5-0.3-0.8c-0.2-0.3-0.5-0.4-0.8-0.4h-1.3q-0.5 0-0.8 0.3-0.3 0.4-0.3 0.9c-0.1 1.4-1.3 2.6-2.7 2.6q-0.7 0-1.3-0.4c-0.5-0.3-1.3-0.1-1.6 0.5l-0.7 1.1c-0.3 0.5-0.1 1.2 0.5 1.6 0.8 0.4 1.3 1.3 1.3 2.3 0 0.9-0.5 1.8-1.3 2.3-0.6 0.3-0.8 1-0.4 1.5l0.6 1.1c0.1 0.3 0.4 0.5 0.7 0.6 0.3 0.1 0.6 0 0.9-0.1 0.4-0.2 0.8-0.4 1.3-0.4zm4.4-1.7c-1.8 0-3.3-1.5-3.3-3.3 0-1.9 1.5-3.4 3.3-3.4 1.9 0 3.4 1.5 3.4 3.4 0 1.8-1.5 3.3-3.4 3.3zm0-5.2c-1 0-1.8 0.8-1.8 1.9 0 1 0.8 1.8 1.8 1.8 1.1 0 1.9-0.8 1.9-1.8 0-1.1-0.8-1.9-1.9-1.9z"/>
</svg>