<svg version="1.2" xmlns="http://www.w3.org/2000/svg" viewBox="0 0 20 20" width="20" height="20">
	<title>heart</title>
	<style>
		.s0 { fill: #000000 } 
	</style>
	<path id="heart" fill-rule="evenodd" class="s0" d="m10 20q-0.4 0-0.8-0.1c-3.6-1.4-9.2-6.2-9.2-13.3 0-3.7 2.6-6.6 5.9-6.6 1.5 0 3 0.7 4.1 1.9 1.1-1.2 2.6-1.9 4.1-1.9 3.3 0 5.9 3 5.9 6.6 0 7.1-5.6 11.9-9.2 13.3q-0.4 0.1-0.8 0.1zm-4.1-18.4c-2.5 0-4.5 2.2-4.5 5 0 7 6.1 11 8.3 11.8 0.1 0.1 0.5 0.1 0.7 0 2.1-0.8 8.2-4.7 8.2-11.8 0-2.8-2-5-4.5-5-1.4 0-2.7 0.7-3.5 2-0.3 0.4-0.9 0.4-1.1 0-0.9-1.3-2.2-2-3.6-2z"/>
</svg>