<svg version="1.2" xmlns="http://www.w3.org/2000/svg" viewBox="0 0 22 22" width="22" height="22">
	<title>house</title>
	<style>
		.s0 { fill: #000000 } 
	</style>
	<path id="house" fill-rule="evenodd" class="s0" d="m16.8 21.8l-11.6-0.1c-2.7 0-5-2.2-5-4.9v-7.4c0-1.4 0.9-3.1 2-3.9l5.4-4.2c1.6-1.3 4.2-1.4 5.8-0.2l6.2 4.3c1.2 0.9 2.1 2.7 2.1 4.1v7.3c0 2.7-2.2 5-4.9 5zm-8.3-19.4l-5.4 4.2c-0.7 0.6-1.4 1.9-1.4 2.8v7.4c0 1.9 1.6 3.4 3.5 3.4h11.6c1.9 0 3.5-1.5 3.5-3.4v-7.3c0-1-0.7-2.3-1.5-2.8l-6.2-4.4c-1.2-0.8-3-0.7-4.1 0.1zm2.5 15.3c-0.4 0-0.8-0.3-0.8-0.7l0.1-3c0-0.4 0.3-0.8 0.7-0.8 0.4 0 0.8 0.4 0.8 0.8v3c0 0.4-0.4 0.7-0.8 0.7z"/>
</svg>