<svg version="1.2" xmlns="http://www.w3.org/2000/svg" viewBox="0 0 22 22" width="22" height="22">
	<title>music</title>
	<style>
		.s0 { fill: #000000 } 
	</style>
	<path id="music" fill-rule="evenodd" class="s0" d="m14 21.8l-6-0.1c-5.4 0-7.8-2.3-7.8-7.7v-6c0-5.4 2.4-7.8 7.8-7.8h6c5.4 0 7.8 2.4 7.8 7.8v6c0 5.4-2.4 7.7-7.8 7.7zm-6-19.9c-4.6-0.1-6.3 1.6-6.3 6.2v6c0 4.6 1.7 6.2 6.3 6.2h6c4.6 0 6.3-1.6 6.3-6.2v-6c0-4.6-1.7-6.3-6.3-6.3zm-0.6 15.2c-1.3 0-2.3-1.1-2.3-2.4 0-1.2 1-2.3 2.3-2.3q0.5 0 0.8 0.2v-4.2c0-0.9 0.6-1.7 1.6-2l3.1-0.8c0.9-0.3 1.6 0 1.9 0.2q0.7 0.6 0.7 1.7v1.1q0 0.1 0 0.2v4.9q0 0 0 0 0 0 0 0c0 1.3-1 2.3-2.3 2.3-1.3 0-2.3-1-2.3-2.3 0-1.3 1-2.3 2.3-2.3q0.4 0 0.8 0.1v-1.8l-4.3 1.1v3.9q0 0 0 0 0 0 0 0c0 1.3-1 2.4-2.3 2.4zm6.6-9.6c0-0.3-0.1-0.5-0.1-0.5-0.1 0-0.3-0.1-0.6 0l-3.1 0.9q-0.5 0.1-0.5 0.5v0.9l4.3-1.2zm-6.6 6.4c-0.4 0-0.8 0.4-0.8 0.8 0 0.5 0.4 0.8 0.8 0.8 0.5 0 0.8-0.3 0.8-0.8 0-0.4-0.3-0.8-0.8-0.8zm5.8-1.1c-0.5 0-0.8 0.4-0.8 0.9 0 0.4 0.3 0.8 0.8 0.8 0.4 0 0.8-0.4 0.8-0.8 0-0.5-0.4-0.9-0.8-0.9z"/>
</svg>