<svg version="1.2" xmlns="http://www.w3.org/2000/svg" viewBox="0 0 20 17" width="20" height="17">
	<title>neighborhood</title>
	<style>
		.s0 { fill: #000000 } 
	</style>
	<path id="neighborhood" fill-rule="evenodd" class="s0" d="m5.5 0.4c0.1 0.1 0.2 0.1 0.3 0.2 0.2 0 0.6 0.3 1 0.6 0.3 0.3 0.7 0.6 0.7 0.6 0 0-0.1 0.1-0.3 0.2q-0.2 0.1-0.5 0.4l-0.3-0.1c-0.1-0.1-0.3-0.3-0.5-0.3-0.1-0.1-0.3-0.1-0.6-0.1-0.2 0-0.4 0-0.6 0.1-0.1 0-0.8 0.5-1.5 1.1-0.8 0.5-1.5 1.1-1.6 1.2q-0.2 0.2-0.5 0.7v2.9c0 2.5 0 3 0.1 3.1 0 0.2 0.2 0.3 0.3 0.4 0.1 0.2 0.3 0.3 0.6 0.4v1l-0.2 0.1c-0.1 0-0.3 0-0.6-0.1-0.3 0-0.6 0-0.7-0.1-0.1 0-0.3-0.1-0.3-0.1-0.1-0.1-0.1-0.2-0.2-0.3 0-0.1-0.1-0.5-0.1-0.9 0-0.4 0-1.9 0-6.8l0.1-0.3c0.1-0.1 0.2-0.3 0.3-0.4 0.1-0.1 1.1-0.9 2.2-1.7 1.1-0.8 2.1-1.6 2.3-1.6 0.1-0.1 0.2-0.2 0.3-0.2 0.1 0 0.2 0 0.3 0zm9.3 0c0.1 0 0.2 0.1 0.3 0.2 0.2 0 1.2 0.8 2.3 1.6 1.1 0.8 2.1 1.6 2.2 1.7 0.1 0.1 0.2 0.3 0.4 0.7v3.1c0 1.8 0 3.3 0 3.7 0 0.4-0.1 0.8-0.1 0.9-0.1 0.1-0.1 0.2-0.2 0.3 0 0-0.2 0.1-0.3 0.1-0.1 0.1-0.4 0.1-0.7 0.1-0.3 0.1-0.5 0.1-0.8 0v-1l0.2-0.1c0.1 0 0.3-0.1 0.4-0.3 0.1-0.1 0.3-0.2 0.3-0.4 0.1-0.1 0.1-0.6 0.1-6l-0.2-0.2c0-0.1-0.2-0.3-0.3-0.5-0.1-0.1-0.8-0.7-1.6-1.2-0.7-0.6-1.4-1.1-1.5-1.1-0.2-0.1-0.4-0.1-0.6-0.1-0.3 0-0.5 0-0.6 0.1-0.1 0-0.4 0.1-0.5 0.2-0.2 0.1-0.3 0.2-0.4 0.2 0 0-0.2-0.2-0.3-0.3-0.2-0.1-0.4-0.3-0.4-0.3 0 0 0.3-0.3 0.7-0.6 0.4-0.3 0.8-0.5 0.9-0.6 0.1-0.1 0.3-0.1 0.4-0.2 0 0 0.2 0 0.3 0zm-4.8 1c0.1 0 0.2 0.1 0.3 0.1 0.2 0 0.4 0.2 0.6 0.3 0.1 0.1 0.6 0.4 1 0.8 0.4 0.3 1.4 1.1 2.4 1.9 0.9 0.7 1.7 1.4 1.9 1.5 0.1 0.2 0.3 0.3 0.3 0.5 0.1 0.1 0.2 0.3 0.2 0.4 0.1 0.2 0.1 0.7 0.2 1.2 0 0.6 0 2 0 3.8 0 1.8 0 3-0.1 3.2 0 0.2-0.1 0.4-0.2 0.6-0.1 0.2-0.1 0.2-0.3 0.3-0.2 0.1-0.4 0.2-0.7 0.2-0.3 0.1-1.6 0.1-5.6 0.1-4.1 0-5.3 0-5.7-0.1-0.2 0-0.5-0.1-0.7-0.2-0.1-0.1-0.2-0.1-0.3-0.3-0.1-0.1-0.1-0.4-0.2-0.6 0-0.2 0-1.2 0-2.3-0.1-1.1 0-2.7 0-3.7 0-0.9 0.1-1.8 0.1-2 0-0.1 0.1-0.4 0.1-0.5 0.1-0.1 0.2-0.3 0.3-0.4 0.1-0.1 0.8-0.7 1.5-1.2 0.7-0.6 1.7-1.4 2.1-1.8 0.5-0.3 1.1-0.8 1.4-1.1 0.3-0.2 0.7-0.5 0.9-0.5 0.2-0.1 0.4-0.2 0.5-0.2zm-0.8 1.7c-0.1 0.1-1.1 0.9-2.2 1.7-1 0.9-2 1.7-2.2 1.8-0.1 0.2-0.3 0.4-0.4 0.6l-0.1 0.2c0 5.6 0 6.8 0 6.9 0.1 0.1 0.2 0.3 0.3 0.4 0.1 0.1 0.2 0.2 0.3 0.3 0.2 0 0.4 0.1 1.5 0.1h1.4c-0.1-0.7-0.1-1-0.1-1.1 0-0.1 0-0.7 0-1.4v-1.2c0.4-0.7 0.6-0.9 0.7-1 0.1-0.2 0.3-0.3 0.4-0.4 0.2 0 0.4 0 1.1 0 0.7 0 0.9 0 1.2 0.1 0.2 0 0.3 0.1 0.5 0.3 0.2 0.1 0.3 0.3 0.4 0.5 0.1 0.2 0.2 0.4 0.2 0.6 0.1 0.2 0.1 0.6 0.1 1.8 0 0.8 0 1.6 0 1.6v0.2c2.3 0 2.5-0.1 2.7-0.1 0.1-0.1 0.2-0.2 0.3-0.2 0.1-0.1 0.2-0.3 0.3-0.4 0.1-0.2 0.1-0.4 0.1-3.5 0-2.8 0-3.3-0.1-3.5 0-0.2-0.2-0.4-0.3-0.6-0.2-0.2-0.9-0.8-2.3-2-1.2-0.9-2.3-1.7-2.4-1.8-0.1 0-0.4-0.1-0.5-0.1-0.1 0-0.3 0-0.4 0-0.2 0-0.4 0.1-0.5 0.2zm0 8.2c-0.1 0-0.1 0.2-0.2 0.2 0 0.1 0 0.2-0.1 0.2 0 0.1 0 0.8 0 1.7v1.7h2.3c-0.1-0.3-0.1-0.7-0.1-1.7 0-0.8 0-1.5 0-1.6-0.1-0.2-0.1-0.3-0.1-0.3q-0.1 0-0.1-0.1c0 0-0.1-0.1-0.2-0.1-0.1-0.1-0.3-0.1-0.4-0.1-0.2 0-0.4 0-0.6 0-0.2 0-0.4 0.1-0.5 0.1z"/>
</svg>