<svg width="30" height="30" viewBox="0 0 30 30" fill="none" xmlns="http://www.w3.org/2000/svg">
<g clip-path="url(#clip0_809_14350)">
<path fill-rule="evenodd" clip-rule="evenodd" d="M9.18002 5.46596C9.26402 5.45996 9.46802 5.52596 9.63002 5.60396C9.79802 5.67596 10.242 5.96396 10.62 6.23996C10.998 6.51596 11.424 6.83996 11.568 6.95396C11.706 7.07396 11.82 7.19996 11.826 7.22996C11.826 7.26596 11.604 7.46396 11.328 7.67396C10.842 8.05196 10.83 8.05796 10.68 7.96196C10.596 7.90796 10.338 7.75796 10.11 7.62596C9.84602 7.46996 9.58202 7.36796 9.39002 7.34996C9.22802 7.32596 8.95802 7.34396 8.79002 7.37996C8.62802 7.41596 8.42402 7.48796 8.34002 7.54196C8.25602 7.59596 7.92002 7.82996 7.59002 8.06396C7.26002 8.29796 6.79802 8.63396 6.56402 8.81996C6.33002 8.99996 5.86802 9.35396 5.54402 9.59996C5.22002 9.84596 4.80602 10.188 4.63202 10.35C4.45202 10.518 4.23002 10.788 3.96602 11.25L3.96002 18.72L4.11002 18.96C4.19402 19.092 4.35002 19.266 4.45802 19.344C4.56002 19.428 4.75202 19.536 5.10002 19.68L5.07002 21.09L4.77002 21.108C4.60802 21.12 4.21202 21.102 3.90002 21.072C3.53402 21.036 3.24002 20.97 3.07802 20.886C2.93402 20.82 2.77202 20.688 2.71802 20.598C2.65802 20.502 2.58002 20.166 2.53802 19.83C2.48402 19.398 2.46002 18.054 2.46002 10.68L2.60402 10.398C2.68202 10.236 2.85002 10.002 2.98202 9.86996C3.10802 9.73796 3.96602 9.06596 4.87802 8.36996C5.79602 7.67396 6.67802 7.01396 6.84002 6.89996C7.00202 6.78596 7.42202 6.47396 7.78202 6.21596C8.13602 5.95196 8.56202 5.68196 8.73002 5.60396C8.89202 5.52596 9.09602 5.46596 9.18002 5.46596ZM20.808 5.46596C20.844 5.45996 21.006 5.50796 21.162 5.56796C21.324 5.62796 21.69 5.84996 21.99 6.05996C22.284 6.26996 23.394 7.09196 24.45 7.87796C25.506 8.66996 26.52 9.43796 26.7 9.59396C26.88 9.74396 27.072 9.92396 27.12 9.98996C27.168 10.05 27.288 10.242 27.546 10.71L27.522 15.27C27.504 18.576 27.48 19.92 27.426 20.16C27.384 20.34 27.312 20.55 27.264 20.628C27.216 20.7 27.072 20.814 26.94 20.88C26.808 20.946 26.466 21.024 26.172 21.06C25.884 21.09 25.482 21.12 24.9 21.12L24.912 20.388C24.93 19.704 24.936 19.65 25.05 19.632C25.116 19.62 25.278 19.542 25.404 19.452C25.53 19.362 25.722 19.188 26.01 18.828L26.04 11.28L25.872 10.974C25.782 10.8 25.548 10.518 25.35 10.338C25.152 10.158 24.504 9.64196 23.91 9.18596C23.316 8.73596 22.698 8.26796 22.536 8.15396C22.374 8.03996 22.08 7.83596 21.876 7.69796C21.636 7.52996 21.396 7.41596 21.18 7.37396C20.988 7.33796 20.724 7.32596 20.55 7.35596C20.382 7.37996 20.112 7.46996 19.95 7.55996C19.782 7.64396 19.524 7.78796 19.08 8.03996L18.672 7.74596C18.45 7.58396 18.228 7.40996 18.18 7.35596C18.102 7.26596 18.102 7.24196 18.21 7.13396C18.276 7.06196 18.492 6.88196 18.69 6.73196C18.888 6.58196 19.338 6.25796 19.692 6.01796C20.052 5.77796 20.43 5.55596 20.532 5.52596C20.64 5.49596 20.766 5.46596 20.802 5.46596H20.808ZM14.976 6.77996C15.186 6.77996 15.384 6.83396 15.636 6.95396C15.834 7.04996 16.176 7.25996 16.398 7.41596C16.614 7.57796 17.316 8.12996 17.958 8.64596C18.594 9.16196 19.764 10.104 20.556 10.74C21.348 11.376 22.182 12.06 22.416 12.258C22.65 12.456 22.908 12.702 22.998 12.804C23.082 12.906 23.226 13.14 23.31 13.32C23.394 13.5 23.496 13.866 23.538 14.13C23.598 14.49 23.616 15.744 23.616 19.14C23.616 22.656 23.598 23.748 23.538 24.03C23.496 24.228 23.4 24.498 23.328 24.624C23.256 24.756 23.13 24.906 23.046 24.972C22.962 25.032 22.692 25.14 21.996 25.35H15.006C8.26802 25.35 7.99802 25.344 7.56602 25.23C7.32002 25.17 7.03802 25.062 6.94202 24.99C6.84002 24.924 6.71402 24.786 6.66002 24.69C6.60002 24.594 6.50402 24.336 6.44402 24.12C6.34202 23.76 6.33602 23.388 6.33602 19.41C6.33602 16.452 6.36002 14.862 6.41402 14.37C6.47402 13.788 6.52202 13.578 6.66602 13.278C6.77402 13.05 6.97202 12.774 7.15802 12.594C7.33202 12.432 8.13602 11.76 8.94002 11.112C9.74402 10.464 10.716 9.67196 11.1 9.35396C11.484 9.04196 12.108 8.53796 12.486 8.23796C12.864 7.94396 13.434 7.52996 13.746 7.31996C14.058 7.10996 14.394 6.90596 14.496 6.86396C14.592 6.82196 14.808 6.78596 14.976 6.77996ZM13.956 8.98796C13.788 9.10196 13.518 9.29996 13.356 9.43196C13.188 9.55796 12.678 9.96596 12.216 10.332C11.754 10.704 10.794 11.478 10.086 12.054C9.37802 12.636 8.67602 13.23 8.53202 13.38C8.38802 13.53 8.19002 13.788 8.10002 13.95L7.92602 14.25C7.92602 21.234 7.95002 22.854 7.98602 22.95C8.02202 23.034 8.13602 23.196 8.23802 23.316C8.34602 23.436 8.53802 23.586 8.65802 23.646C8.85602 23.748 9.10202 23.766 10.542 23.808L12.198 23.85C12.12 23.154 12.102 22.14 12.108 21.15L12.12 19.35C12.54 18.516 12.75 18.162 12.864 18.03C12.972 17.898 13.212 17.718 13.392 17.622C13.71 17.46 13.728 17.46 14.856 17.46C15.738 17.46 16.08 17.484 16.356 17.562C16.656 17.646 16.776 17.724 17.082 18.024C17.364 18.312 17.49 18.498 17.646 18.87L17.844 19.35C17.928 21.582 17.94 22.596 17.922 23.04L17.892 23.85C20.82 23.778 21.066 23.76 21.27 23.664C21.402 23.598 21.612 23.43 21.738 23.28C21.888 23.1 21.978 22.926 21.996 22.77C22.014 22.638 22.032 20.706 22.032 18.48C22.032 14.91 22.02 14.4 21.936 14.16C21.882 14.01 21.78 13.812 21.708 13.71C21.642 13.614 21.522 13.476 21.456 13.41C21.384 13.344 21.222 13.194 21.09 13.08C20.964 12.966 20.628 12.678 20.346 12.444C20.064 12.21 19.428 11.7 18.936 11.304C18.438 10.908 17.778 10.38 17.466 10.128C17.154 9.88196 16.662 9.49796 16.368 9.28196C16.08 9.05996 15.756 8.83796 15.648 8.77796C15.54 8.72396 15.27 8.66996 15.036 8.66396C14.802 8.65196 14.532 8.66996 14.436 8.71196C14.334 8.74796 14.118 8.86796 13.956 8.98796ZM14.088 19.158C13.986 19.2 13.872 19.326 13.8 19.47C13.698 19.692 13.686 19.866 13.686 21.768V23.82H16.446C16.392 23.61 16.356 22.656 16.338 21.57C16.296 19.734 16.29 19.578 16.176 19.398C16.11 19.29 15.99 19.17 15.906 19.128C15.822 19.092 15.474 19.05 15.126 19.044C14.778 19.032 14.442 19.038 14.376 19.056C14.31 19.074 14.178 19.116 14.088 19.158Z" fill="#707175"/>
</g>
<defs>
<clipPath id="clip0_809_14350">
<rect width="30" height="30" fill="white"/>
</clipPath>
</defs>
</svg>
