<svg width="22" height="21" viewBox="0 0 22 21" fill="none" xmlns="http://www.w3.org/2000/svg">
<g clip-path="url(#clip0_809_13820)">
<path fill-rule="evenodd" clip-rule="evenodd" d="M8.24926 0.0021806C8.54239 8.68824e-05 8.87319 0.0126492 9.06581 0.0314927C9.24378 0.0482424 9.52643 0.0838357 9.69393 0.113148C9.86143 0.140366 10.1336 0.19899 10.3011 0.240865C10.4686 0.282739 10.7408 0.3623 10.9083 0.416737C11.0758 0.473267 11.3291 0.567485 11.4736 0.628203C11.6181 0.68892 11.8819 0.810356 12.0598 0.90248C12.2378 0.99251 12.5121 1.14744 12.667 1.24585C12.8219 1.34635 13.0543 1.50128 13.18 1.59341C13.3056 1.68344 13.5087 1.84047 13.6301 1.94096C13.7516 2.04356 13.9609 2.23409 14.0991 2.36599C14.2352 2.49789 14.4362 2.70936 14.5472 2.83708C14.656 2.96479 14.8047 3.14276 14.8759 3.23488C14.9471 3.32701 15.0706 3.4966 15.1502 3.61175C15.2276 3.72691 15.3595 3.93419 15.4433 4.07237C15.527 4.21056 15.6506 4.43668 15.7197 4.57486C15.7867 4.71305 15.8683 4.88264 15.8976 4.95173C15.9269 5.02083 15.9772 5.13807 16.0065 5.21345C16.0379 5.28882 16.1028 5.46679 16.1531 5.61125C16.2033 5.75572 16.2829 6.01953 16.3289 6.1975C16.375 6.37546 16.4357 6.64974 16.465 6.80467C16.4943 6.95961 16.5341 7.2297 16.553 7.40138C16.5781 7.62332 16.5906 7.88294 16.5906 8.28075C16.5906 8.60946 16.5802 8.94655 16.5655 9.08683C16.5509 9.21873 16.5153 9.46998 16.486 9.64166C16.4587 9.81335 16.4169 10.0311 16.3938 10.1232C16.3687 10.2153 16.3373 10.3472 16.3226 10.4163C16.3059 10.4854 16.2536 10.6655 16.2054 10.8141C16.1551 10.9628 16.0693 11.2036 16.0128 11.348C15.9562 11.4925 15.8495 11.7333 15.7783 11.8819C15.7071 12.0306 15.5877 12.2588 15.5166 12.3844C15.4433 12.5101 15.3156 12.7194 15.2318 12.8451C15.1481 12.9707 15.0162 13.1591 14.9366 13.2638C14.8591 13.3685 14.7251 13.536 14.6372 13.6407C14.5514 13.7454 14.3713 13.9422 14.2373 14.0783C14.1054 14.2143 13.873 14.4321 13.7243 14.5598C13.5757 14.6875 13.3768 14.8487 13.2847 14.9178C13.1925 14.9869 13.0606 15.0811 12.9936 15.1272C12.9245 15.1733 12.7738 15.2717 12.6586 15.345C12.5414 15.4182 12.376 15.5187 12.2901 15.569C12.2043 15.6171 12.0766 15.6862 12.0075 15.7197C11.9384 15.7532 11.773 15.8307 11.6411 15.8893C11.5092 15.9479 11.3877 15.9961 11.3752 15.9961C11.3605 15.9961 11.3124 16.0129 11.2705 16.0359C11.2265 16.0568 11.059 16.1196 10.8978 16.172C10.7366 16.2264 10.4728 16.3018 10.3116 16.3416C10.1504 16.3813 9.88237 16.4379 9.71487 16.4651C9.54737 16.4944 9.31287 16.53 9.19144 16.5447C9.05325 16.5614 8.72244 16.5719 8.30161 16.5719C7.88077 16.5719 7.54996 16.5614 7.41178 16.5447C7.29034 16.53 7.05584 16.4944 6.88835 16.4651C6.72085 16.4379 6.45704 16.3813 6.30211 16.3437C6.14717 16.3039 5.92524 16.2411 5.81008 16.2055C5.69493 16.1678 5.51487 16.105 5.41227 16.0652C5.30968 16.0254 5.14428 15.9605 5.04587 15.9186C4.94747 15.8768 4.75485 15.7867 4.61666 15.7176C4.47848 15.6485 4.29004 15.5501 4.19792 15.4978C4.10579 15.4455 3.88386 15.3052 3.70589 15.1879C3.52793 15.0686 3.27877 14.8885 3.15106 14.788C3.02543 14.6875 2.81188 14.5033 2.67997 14.3818C2.54807 14.2604 2.3366 14.0489 2.20888 13.9108C2.08326 13.7705 1.88436 13.536 1.7692 13.3894C1.65405 13.2408 1.52424 13.067 1.48027 13.0021C1.43421 12.9393 1.35046 12.8116 1.29184 12.7194C1.23112 12.6294 1.13899 12.4787 1.08456 12.3844C1.03221 12.2923 0.935903 12.1123 0.873092 11.9866C0.812374 11.861 0.728625 11.6809 0.690938 11.5888C0.653251 11.4967 0.611377 11.3983 0.596721 11.369C0.579971 11.3397 0.512972 11.147 0.443879 10.9398C0.374787 10.7325 0.284757 10.4268 0.242882 10.2593C0.203102 10.0918 0.144478 9.80916 0.117259 9.6312C0.0879471 9.45323 0.0523539 9.18942 0.0376979 9.04495C0.0230418 8.90049 0.0125732 8.5613 0.0125732 8.29121C0.0125732 8.02112 0.0230418 7.68194 0.0376979 7.53748C0.0523539 7.39301 0.0879471 7.1292 0.117259 6.95123C0.144478 6.77327 0.203102 6.49062 0.242882 6.32312C0.284757 6.15562 0.362224 5.88344 0.416661 5.71594C0.471098 5.54844 0.542284 5.35163 0.57369 5.27626C0.607189 5.20089 0.674189 5.04176 0.726532 4.92033C0.778875 4.79889 0.875186 4.59789 0.942185 4.47018C1.00918 4.34246 1.11387 4.16031 1.17459 4.0619C1.23321 3.9635 1.35046 3.78553 1.43211 3.6641C1.51168 3.54266 1.65405 3.34585 1.74408 3.22441C1.8362 3.10298 2.01836 2.88733 2.14607 2.74286C2.27588 2.59839 2.46432 2.40158 2.569 2.30318C2.6716 2.20477 2.83909 2.05403 2.94169 1.96609C3.04637 1.88025 3.21596 1.74415 3.31856 1.66459C3.42115 1.58713 3.64308 1.43219 3.81058 1.32332C3.97808 1.21235 4.28795 1.03438 4.50151 0.923417C4.71507 0.81245 4.96003 0.695202 5.04587 0.663796C5.13172 0.630296 5.23012 0.590516 5.26571 0.571672C5.29921 0.554922 5.46462 0.494205 5.63212 0.437674C5.79961 0.381144 6.10111 0.293208 6.30211 0.242958C6.5031 0.192709 6.79622 0.129897 6.95116 0.104773C7.10609 0.0817419 7.35106 0.0482424 7.49553 0.0335864C7.63999 0.0168366 7.97917 0.00427432 8.24926 0.0021806ZM7.27568 1.26679C7.14797 1.28563 6.93231 1.32541 6.79413 1.35263C6.65594 1.38194 6.49054 1.41963 6.42773 1.43847C6.36492 1.45732 6.21836 1.50338 6.1032 1.54316C5.98805 1.58294 5.80799 1.64784 5.7054 1.68972C5.6028 1.7295 5.3704 1.83418 5.19243 1.92212C5.01447 2.01006 4.78207 2.1294 4.67947 2.19012C4.57688 2.24874 4.43451 2.33458 4.36542 2.38274C4.29632 2.43089 4.19792 2.49999 4.14557 2.53558C4.09323 2.57117 3.96342 2.67377 3.85455 2.7617C3.74567 2.84964 3.5384 3.03389 3.39393 3.17417C3.24946 3.31444 3.04847 3.52172 2.95006 3.63478C2.85166 3.74784 2.71347 3.91744 2.64438 4.00956C2.57529 4.10168 2.45804 4.26709 2.38476 4.37596C2.30938 4.48483 2.19213 4.67746 2.12095 4.80517C2.04976 4.93289 1.94508 5.13389 1.88645 5.25532C1.82992 5.37676 1.74617 5.56938 1.70011 5.68453C1.65405 5.79969 1.57658 6.01744 1.52843 6.16609C1.48027 6.31474 1.42165 6.52412 1.39862 6.62671C1.37558 6.7293 1.3358 6.94286 1.30859 7.09779C1.28137 7.25273 1.24787 7.49769 1.23321 7.64216C1.21856 7.80757 1.21437 8.10697 1.22065 8.45871C1.22902 8.85861 1.24368 9.09311 1.27299 9.2962C1.29812 9.45113 1.33999 9.69191 1.3714 9.8301C1.40071 9.96828 1.46352 10.2049 1.51168 10.3535C1.55774 10.5022 1.62683 10.7053 1.66452 10.8037C1.7022 10.9021 1.75664 11.0382 1.78805 11.1073C1.81945 11.1764 1.89273 11.3271 1.94926 11.4423C2.00579 11.5574 2.09582 11.7312 2.14817 11.8296C2.20051 11.928 2.25495 12.0222 2.2696 12.039C2.28635 12.0557 2.36382 12.1688 2.44547 12.2902C2.52713 12.4117 2.67369 12.6106 2.77209 12.7362C2.8705 12.8597 3.04847 13.0607 3.16781 13.1842C3.28506 13.3057 3.47977 13.4962 3.60121 13.6051C3.72264 13.7139 3.9362 13.8898 4.07648 13.9945C4.21676 14.0992 4.42823 14.2458 4.54757 14.319C4.66482 14.3944 4.90559 14.5263 5.07728 14.6142C5.25106 14.7022 5.51487 14.8215 5.66352 14.8801C5.81218 14.9388 6.02573 15.0141 6.13461 15.0497C6.24348 15.0832 6.39842 15.1314 6.48007 15.1544C6.56173 15.1796 6.75016 15.2214 6.89882 15.2507C7.04747 15.2801 7.28825 15.3198 7.43271 15.3366C7.57718 15.3554 7.90171 15.3764 8.15505 15.3826C8.49423 15.391 8.7036 15.3847 8.95066 15.3596C9.13491 15.3429 9.41756 15.3031 9.57878 15.2717C9.73999 15.2403 9.90958 15.2089 9.95565 15.2005C10.0017 15.19 10.1336 15.1544 10.2488 15.1209C10.3639 15.0853 10.5817 15.0121 10.7303 14.9597C10.879 14.9053 11.0674 14.8299 11.1491 14.7922C11.2307 14.7545 11.3563 14.6959 11.4317 14.6582C11.5071 14.6226 11.6662 14.5389 11.7877 14.4719C11.9091 14.407 12.0975 14.2918 12.2064 14.2185C12.3153 14.1432 12.4953 14.0154 12.6042 13.9338C12.7131 13.8521 12.9204 13.6763 13.0648 13.5423C13.2093 13.4104 13.4061 13.2177 13.5045 13.1151C13.6029 13.0126 13.7599 12.8346 13.8521 12.7194C13.9421 12.6043 14.0614 12.4493 14.1159 12.374C14.1682 12.2986 14.275 12.1374 14.3504 12.0118C14.4257 11.8882 14.5597 11.6474 14.6456 11.4737C14.7314 11.302 14.8403 11.0675 14.8843 10.9544C14.9282 10.8435 15.0036 10.6341 15.0497 10.4896C15.0957 10.3452 15.1544 10.163 15.1774 10.0813C15.2004 9.99969 15.2423 9.80288 15.2716 9.64166C15.303 9.48045 15.3407 9.22083 15.3595 9.06589C15.3805 8.88374 15.393 8.60737 15.393 8.29121C15.393 7.97716 15.3805 7.6966 15.3595 7.51654C15.3407 7.3616 15.303 7.10198 15.2716 6.94077C15.2423 6.77955 15.1941 6.56808 15.1669 6.46968C15.1376 6.37127 15.0853 6.20168 15.0497 6.09281C15.0141 5.98394 14.9345 5.76619 14.8717 5.61125C14.8089 5.45632 14.6833 5.18414 14.5911 5.00826C14.5011 4.83448 14.3943 4.63977 14.3566 4.58114C14.3169 4.52043 14.252 4.41783 14.2101 4.35502C14.1682 4.29221 14.1033 4.1959 14.0656 4.14146C14.0279 4.08703 13.9002 3.9279 13.7851 3.78553C13.6678 3.64316 13.4312 3.39191 13.2616 3.22441C13.0899 3.05692 12.8596 2.84964 12.7508 2.7617C12.6419 2.67377 12.4283 2.51883 12.2797 2.41624C12.131 2.31365 11.8944 2.16499 11.7562 2.08962C11.6181 2.01215 11.4212 1.91165 11.3166 1.8635C11.2119 1.81534 11.0381 1.73997 10.9292 1.696C10.8204 1.65412 10.5838 1.57038 10.4058 1.51385C10.2278 1.45522 9.93052 1.37775 9.74627 1.34216C9.56203 1.30657 9.30241 1.2626 9.1705 1.24376C9.02813 1.22491 8.72244 1.20816 8.42723 1.20398C8.15086 1.19979 7.83052 1.20607 7.71537 1.21444C7.60021 1.22491 7.4034 1.25004 7.27568 1.26679ZM15.3574 14.7189C15.46 14.7189 15.5333 14.7336 15.5982 14.7629C15.6631 14.7922 15.8222 14.9346 16.1216 15.2319C16.3582 15.4664 16.9361 16.038 17.4072 16.5028C17.8762 16.9655 18.4394 17.5245 18.6592 17.7444C18.877 17.9642 19.2141 18.3013 19.4088 18.4981C19.6035 18.6949 20.0264 19.1136 20.3489 19.4298C20.776 19.8506 20.9498 20.0328 20.9875 20.1103C21.0335 20.1961 21.0419 20.2443 21.0419 20.3824C21.0419 20.4976 21.0293 20.5751 21.0042 20.6337C20.9833 20.6798 20.933 20.753 20.8932 20.7991C20.8535 20.8431 20.7676 20.908 20.7027 20.9394C20.6043 20.9896 20.5541 21.0001 20.4347 21.0001C20.3175 21.0001 20.2651 20.9896 20.1793 20.9457C20.0976 20.9059 19.9573 20.7782 19.66 20.4808C19.436 20.2547 19.1534 19.9784 19.0319 19.8674C18.9105 19.7564 17.9202 18.7766 16.8293 17.6899C15.1229 15.9877 14.8403 15.6967 14.7942 15.5983C14.7524 15.5083 14.7398 15.4496 14.7398 15.3366C14.7398 15.2235 14.7524 15.1628 14.7942 15.0749C14.8235 15.0121 14.8717 14.9325 14.9031 14.899C14.9345 14.8655 15.0162 14.8132 15.0853 14.7797C15.1878 14.7294 15.2381 14.7189 15.3574 14.7189Z" fill="#707175"/>
</g>
<defs>
<clipPath id="clip0_809_13820">
<rect width="21.0419" height="21" fill="white"/>
</clipPath>
</defs>
</svg>
