<svg version="1.2" xmlns="http://www.w3.org/2000/svg" viewBox="0 0 22 22" width="22" height="22">
	<title>search</title>
	<style>
		.s0 { fill: #000000 } 
	</style>
	<path id="search" fill-rule="evenodd" class="s0" d="m8.6 0c0.3 0 0.7 0 0.9 0 0.2 0.1 0.5 0.1 0.6 0.1 0.2 0 0.5 0.1 0.7 0.2 0.1 0 0.4 0.1 0.6 0.1 0.2 0.1 0.4 0.2 0.6 0.3 0.1 0 0.4 0.1 0.6 0.2 0.2 0.1 0.5 0.3 0.6 0.4 0.2 0.1 0.4 0.3 0.6 0.4 0.1 0.1 0.3 0.2 0.5 0.3 0.1 0.1 0.3 0.3 0.4 0.5 0.2 0.1 0.4 0.3 0.5 0.5 0.1 0.1 0.3 0.3 0.4 0.4 0 0.1 0.2 0.3 0.2 0.4 0.1 0.1 0.3 0.3 0.3 0.5 0.1 0.1 0.3 0.3 0.3 0.5 0.1 0.1 0.2 0.3 0.2 0.4 0.1 0.1 0.1 0.2 0.1 0.3 0.1 0 0.1 0.2 0.2 0.4 0 0.1 0.1 0.4 0.2 0.6 0 0.2 0.1 0.5 0.1 0.6 0 0.2 0.1 0.5 0.1 0.7 0 0.2 0 0.5 0 0.9 0 0.3 0 0.7 0 0.8 0 0.2 0 0.4-0.1 0.6 0 0.2 0 0.4-0.1 0.5 0 0.1 0 0.2 0 0.3-0.1 0.1-0.1 0.3-0.2 0.4 0 0.2-0.1 0.4-0.2 0.6 0 0.1-0.1 0.4-0.2 0.5-0.1 0.2-0.2 0.4-0.3 0.6-0.1 0.1-0.2 0.3-0.3 0.5-0.1 0.1-0.2 0.3-0.3 0.4-0.1 0.1-0.2 0.3-0.3 0.4-0.1 0.1-0.3 0.3-0.4 0.4-0.2 0.2-0.4 0.4-0.6 0.6-0.1 0.1-0.3 0.3-0.4 0.3-0.1 0.1-0.2 0.2-0.3 0.2-0.1 0.1-0.2 0.2-0.4 0.3-0.1 0.1-0.3 0.2-0.4 0.2 0 0.1-0.2 0.1-0.2 0.2-0.1 0-0.3 0.1-0.4 0.1-0.2 0.1-0.3 0.2-0.3 0.2q0 0-0.1 0c-0.1 0-0.2 0.1-0.4 0.1-0.2 0.1-0.5 0.2-0.6 0.2-0.2 0.1-0.5 0.1-0.6 0.1-0.2 0.1-0.5 0.1-0.6 0.1-0.1 0.1-0.5 0.1-0.9 0.1-0.5 0-0.8 0-1-0.1-0.1 0-0.3 0-0.5-0.1-0.2 0-0.4 0-0.6-0.1-0.2 0-0.4-0.1-0.5-0.1-0.1-0.1-0.3-0.1-0.4-0.2-0.1 0-0.3-0.1-0.4-0.1-0.1-0.1-0.3-0.2-0.5-0.2-0.1-0.1-0.3-0.2-0.4-0.3-0.1 0-0.3-0.2-0.5-0.3-0.2-0.1-0.5-0.3-0.6-0.4-0.1-0.1-0.4-0.3-0.5-0.4-0.1-0.2-0.4-0.4-0.5-0.5-0.1-0.2-0.3-0.4-0.5-0.6-0.1-0.1-0.2-0.3-0.3-0.4 0 0-0.1-0.2-0.1-0.3-0.1-0.1-0.2-0.2-0.3-0.3 0-0.1-0.1-0.3-0.2-0.4-0.1-0.2-0.1-0.4-0.2-0.5 0-0.1-0.1-0.2-0.1-0.2 0 0-0.1-0.2-0.1-0.4-0.1-0.3-0.2-0.6-0.2-0.8-0.1-0.1-0.1-0.4-0.2-0.6 0-0.2 0-0.5-0.1-0.6 0-0.2 0-0.5 0-0.8 0-0.3 0-0.7 0-0.8 0.1-0.2 0.1-0.4 0.1-0.6 0.1-0.2 0.1-0.5 0.2-0.7 0-0.2 0.1-0.4 0.1-0.6 0.1-0.2 0.2-0.4 0.2-0.5 0-0.1 0.1-0.2 0.2-0.3 0-0.2 0.1-0.4 0.2-0.5 0.1-0.2 0.2-0.3 0.2-0.4 0.1-0.1 0.2-0.3 0.3-0.5 0.1-0.1 0.2-0.3 0.3-0.4 0.1-0.1 0.3-0.4 0.4-0.5 0.2-0.2 0.4-0.4 0.5-0.5 0.1-0.1 0.3-0.2 0.4-0.3 0.1-0.1 0.3-0.3 0.4-0.4 0.1 0 0.3-0.2 0.5-0.3 0.2-0.1 0.5-0.3 0.7-0.4 0.2-0.1 0.5-0.3 0.6-0.3 0.1 0 0.2-0.1 0.2-0.1 0 0 0.2-0.1 0.4-0.1 0.2-0.1 0.5-0.2 0.7-0.2 0.2-0.1 0.5-0.2 0.7-0.2 0.1 0 0.4 0 0.5-0.1 0.2 0 0.5 0 0.8 0zm-1 1.3c-0.1 0-0.4 0.1-0.5 0.1-0.1 0-0.3 0.1-0.4 0.1 0 0-0.2 0.1-0.3 0.1-0.1 0.1-0.3 0.1-0.4 0.2-0.1 0-0.4 0.1-0.6 0.2-0.2 0.1-0.4 0.2-0.5 0.3-0.1 0.1-0.3 0.1-0.3 0.2-0.1 0-0.2 0.1-0.3 0.2 0 0-0.2 0.1-0.3 0.2-0.1 0.1-0.3 0.3-0.5 0.4-0.1 0.2-0.3 0.4-0.4 0.5-0.1 0.1-0.3 0.3-0.3 0.4-0.1 0.1-0.2 0.3-0.3 0.4-0.1 0.1-0.2 0.3-0.3 0.4-0.1 0.2-0.2 0.4-0.2 0.5-0.1 0.1-0.2 0.3-0.2 0.5-0.1 0.1-0.2 0.3-0.2 0.5-0.1 0.1-0.1 0.3-0.1 0.4-0.1 0.1-0.1 0.4-0.1 0.5-0.1 0.2-0.1 0.5-0.1 0.6 0 0.2 0 0.5 0 0.9 0 0.4 0 0.6 0 0.8 0.1 0.2 0.1 0.5 0.1 0.6 0.1 0.1 0.1 0.4 0.2 0.5 0 0.2 0.1 0.4 0.1 0.5 0.1 0.1 0.1 0.3 0.2 0.3 0 0.1 0.1 0.3 0.1 0.4 0.1 0.1 0.2 0.3 0.2 0.4 0.1 0.1 0.2 0.2 0.2 0.2 0 0 0.1 0.1 0.2 0.3 0 0.1 0.2 0.3 0.3 0.4 0.1 0.2 0.3 0.4 0.4 0.5 0.1 0.1 0.3 0.3 0.5 0.5 0.1 0.1 0.3 0.3 0.5 0.4 0.1 0.1 0.3 0.2 0.5 0.3 0.1 0.1 0.3 0.2 0.5 0.3 0.2 0.1 0.5 0.2 0.6 0.3 0.2 0.1 0.4 0.1 0.5 0.2 0.1 0 0.3 0.1 0.4 0.1 0.1 0 0.3 0 0.4 0.1 0.2 0 0.4 0 0.6 0.1 0.1 0 0.5 0 0.7 0 0.4 0 0.6 0 0.9 0 0.2 0 0.4-0.1 0.6-0.1 0.2 0 0.4-0.1 0.4-0.1 0.1 0 0.2 0 0.3-0.1 0.1 0 0.4-0.1 0.5-0.1 0.2-0.1 0.4-0.2 0.5-0.2 0 0 0.2-0.1 0.3-0.1 0-0.1 0.2-0.2 0.3-0.2 0.2-0.1 0.3-0.2 0.5-0.3 0.1-0.1 0.3-0.2 0.4-0.3 0.1-0.1 0.3-0.3 0.5-0.4 0.1-0.2 0.3-0.4 0.4-0.5 0.1-0.1 0.3-0.3 0.4-0.4 0.1-0.1 0.2-0.3 0.3-0.3 0-0.1 0.1-0.3 0.2-0.4 0.1-0.1 0.2-0.4 0.3-0.6 0.1-0.2 0.2-0.4 0.3-0.5 0-0.1 0.1-0.4 0.1-0.5 0.1-0.2 0.1-0.4 0.2-0.4 0-0.1 0-0.3 0.1-0.5 0-0.2 0-0.4 0.1-0.6q0-0.3 0-0.8c0-0.3 0-0.6 0-0.8-0.1-0.2-0.1-0.5-0.1-0.6-0.1-0.2-0.1-0.4-0.1-0.5-0.1-0.1-0.1-0.3-0.2-0.4 0-0.1-0.1-0.4-0.2-0.5 0-0.2-0.1-0.5-0.2-0.7-0.1-0.1-0.3-0.3-0.3-0.4 0-0.1-0.1-0.2-0.1-0.2-0.1-0.1-0.2-0.2-0.2-0.3 0 0-0.2-0.2-0.3-0.3-0.1-0.2-0.4-0.4-0.5-0.6-0.2-0.2-0.5-0.4-0.6-0.5-0.1-0.1-0.3-0.3-0.5-0.4-0.1-0.1-0.4-0.2-0.5-0.3-0.2-0.1-0.4-0.2-0.5-0.2-0.1-0.1-0.3-0.2-0.4-0.2-0.1-0.1-0.3-0.2-0.5-0.2-0.2-0.1-0.5-0.2-0.7-0.2-0.2 0-0.5-0.1-0.6-0.1-0.2 0-0.5 0-0.8 0-0.3 0-0.6 0-0.7 0-0.2 0-0.4 0-0.5 0zm8.5 14.1q0.1 0 0.2 0.1c0.1 0 0.2 0.1 0.6 0.5 0.2 0.2 0.8 0.8 1.3 1.3 0.5 0.5 1.1 1.1 1.3 1.3 0.2 0.2 0.6 0.6 0.8 0.8 0.2 0.2 0.6 0.6 1 1 0.4 0.4 0.6 0.6 0.6 0.7 0.1 0.1 0.1 0.1 0.1 0.3q0 0.1 0 0.2c-0.1 0.1-0.1 0.1-0.2 0.2 0 0-0.1 0.1-0.2 0.1-0.1 0.1-0.1 0.1-0.2 0.1-0.2 0-0.2 0-0.3-0.1-0.1 0-0.2-0.1-0.5-0.4-0.3-0.3-0.6-0.6-0.7-0.7-0.1-0.1-1.2-1.1-2.3-2.3-1.8-1.8-2.1-2.1-2.1-2.2-0.1-0.1-0.1-0.1-0.1-0.2 0-0.2 0-0.2 0.1-0.3 0-0.1 0-0.2 0.1-0.2 0 0 0.1-0.1 0.2-0.1 0.1-0.1 0.1-0.1 0.3-0.1z"/>
</svg>