<svg version="1.2" xmlns="http://www.w3.org/2000/svg" viewBox="0 0 20 20" width="20" height="20">
	<title>star</title>
	<style>
		.s0 { fill: #000000 } 
	</style>
	<path id="star" fill-rule="evenodd" class="s0" d="m15.3 20c-0.5 0-1.2-0.2-1.9-0.6l-2.8-1.7c-0.3-0.2-0.9-0.2-1.2 0l-2.7 1.7c-1.7 1-2.7 0.6-3.1 0.2-0.4-0.3-1.1-1.1-0.7-3l0.7-2.8c0.1-0.3-0.1-0.9-0.3-1.1l-2.3-2.3c-1.2-1.2-1.1-2.2-0.9-2.6 0.2-0.5 0.7-1.4 2.3-1.7l2.9-0.5c0.3 0 0.7-0.3 0.8-0.6l1.7-3.3c0.7-1.5 1.7-1.7 2.2-1.7 0.5 0 1.5 0.2 2.2 1.7l1.7 3.3c0.1 0.3 0.5 0.6 0.8 0.6l3 0.5c1.6 0.3 2.1 1.2 2.2 1.6 0.2 0.5 0.3 1.5-0.9 2.7l-2.3 2.3c-0.2 0.2-0.4 0.8-0.3 1.1l0.7 2.8c0.4 1.9-0.3 2.7-0.7 3-0.2 0.2-0.6 0.4-1.1 0.4zm-5.3-3.8c0.5 0 0.9 0.1 1.3 0.3l2.8 1.7c0.8 0.5 1.3 0.5 1.5 0.3 0.2-0.1 0.3-0.6 0.1-1.5l-0.7-2.9c-0.1-0.8 0.2-1.8 0.7-2.4l2.3-2.3c0.5-0.5 0.7-0.9 0.6-1.2-0.1-0.3-0.5-0.6-1.2-0.7l-2.9-0.5c-0.8-0.1-1.5-0.7-1.9-1.3l-1.6-3.3c-0.3-0.6-0.7-1-1-1-0.3 0-0.7 0.4-1 1l-1.6 3.3c-0.4 0.6-1.1 1.2-1.9 1.3l-2.9 0.5c-0.6 0.1-1.1 0.4-1.2 0.7-0.1 0.3 0.1 0.8 0.6 1.2l2.3 2.3c0.6 0.6 0.8 1.6 0.7 2.4l-0.7 2.9c-0.2 0.9-0.1 1.4 0.1 1.5 0.2 0.2 0.7 0.1 1.6-0.3l2.7-1.7c0.4-0.2 0.8-0.3 1.3-0.3z"/>
</svg>